<?xml version="1.0" encoding="UTF-8" standalone="no"?>
<svg xmlns="http://www.w3.org/2000/svg" xmlns:xlink="http://www.w3.org/1999/xlink" contentScriptType="application/ecmascript" contentStyleType="text/css" height="602px" preserveAspectRatio="none" style="width:949px;height:602px;background:#FFFFFF;" version="1.1" viewBox="0 0 949 602" width="949px" zoomAndPan="magnify"><defs/><g><!--MD5=[9d35236b92952560f647498cf8a29acb]
class Term--><rect codeLine="3" fill="#FEFECE" height="48" id="Term" style="stroke:#A80036;stroke-width:1.5;" width="63" x="382.5" y="7"/><ellipse cx="397.5" cy="23" fill="#B4A7E5" rx="11" ry="11" style="stroke:#A80036;stroke-width:1.0;"/><path d="M398.4531,19.7813 L400.1719,19.7813 C400.5625,19.7813 400.75,19.75 400.875,19.6719 C401.1406,19.5156 401.2813,19.2344 401.2813,18.9375 C401.2813,18.6719 401.1719,18.4063 400.9375,18.2344 C400.7656,18.125 400.625,18.0938 400.1719,18.0938 L395.0313,18.0938 C394.5938,18.0938 394.4688,18.1094 394.3125,18.2031 C394.0625,18.3594 393.9063,18.6563 393.9063,18.9375 C393.9063,19.2188 394.0469,19.4688 394.2656,19.6406 C394.4219,19.75 394.6094,19.7813 395.0313,19.7813 L396.75,19.7813 L396.75,26.2969 L395.0313,26.2969 C394.5938,26.2969 394.4688,26.3125 394.3125,26.4219 C394.0625,26.5781 393.9063,26.8594 393.9063,27.1563 C393.9063,27.4063 394.0469,27.6719 394.2656,27.8281 C394.4219,27.9531 394.625,28 395.0313,28 L400.1719,28 C400.9219,28 401.2813,27.7188 401.2813,27.1563 C401.2813,26.875 401.1719,26.625 400.9375,26.4531 C400.7656,26.3281 400.625,26.2969 400.1719,26.2969 L398.4531,26.2969 L398.4531,19.7813 Z " fill="#000000"/><text fill="#000000" font-family="sans-serif" font-size="12" font-style="italic" lengthAdjust="spacing" textLength="31" x="411.5" y="27.1543">Term</text><line style="stroke:#A80036;stroke-width:1.5;" x1="383.5" x2="444.5" y1="39" y2="39"/><line style="stroke:#A80036;stroke-width:1.5;" x1="383.5" x2="444.5" y1="47" y2="47"/><!--MD5=[54b85b6d1a687c59d530998eb343c279]
class Constant--><rect codeLine="4" fill="#FEFECE" height="48" id="Constant" style="stroke:#A80036;stroke-width:1.5;" width="86" x="267" y="115"/><ellipse cx="282" cy="131" fill="#B4A7E5" rx="11" ry="11" style="stroke:#A80036;stroke-width:1.0;"/><path d="M282.9531,127.7813 L284.6719,127.7813 C285.0625,127.7813 285.25,127.75 285.375,127.6719 C285.6406,127.5156 285.7813,127.2344 285.7813,126.9375 C285.7813,126.6719 285.6719,126.4063 285.4375,126.2344 C285.2656,126.125 285.125,126.0938 284.6719,126.0938 L279.5313,126.0938 C279.0938,126.0938 278.9688,126.1094 278.8125,126.2031 C278.5625,126.3594 278.4063,126.6563 278.4063,126.9375 C278.4063,127.2188 278.5469,127.4688 278.7656,127.6406 C278.9219,127.75 279.1094,127.7813 279.5313,127.7813 L281.25,127.7813 L281.25,134.2969 L279.5313,134.2969 C279.0938,134.2969 278.9688,134.3125 278.8125,134.4219 C278.5625,134.5781 278.4063,134.8594 278.4063,135.1563 C278.4063,135.4063 278.5469,135.6719 278.7656,135.8281 C278.9219,135.9531 279.125,136 279.5313,136 L284.6719,136 C285.4219,136 285.7813,135.7188 285.7813,135.1563 C285.7813,134.875 285.6719,134.625 285.4375,134.4531 C285.2656,134.3281 285.125,134.2969 284.6719,134.2969 L282.9531,134.2969 L282.9531,127.7813 Z " fill="#000000"/><text fill="#000000" font-family="sans-serif" font-size="12" font-style="italic" lengthAdjust="spacing" textLength="54" x="296" y="135.1543">Constant</text><line style="stroke:#A80036;stroke-width:1.5;" x1="268" x2="352" y1="147" y2="147"/><line style="stroke:#A80036;stroke-width:1.5;" x1="268" x2="352" y1="155" y2="155"/><!--MD5=[731225e2007e13f9ac67fff186258580]
class Var--><rect codeLine="5" fill="#FEFECE" height="48" id="Var" style="stroke:#A80036;stroke-width:1.5;" width="52" x="388" y="115"/><ellipse cx="403" cy="131" fill="#B4A7E5" rx="11" ry="11" style="stroke:#A80036;stroke-width:1.0;"/><path d="M403.9531,127.7813 L405.6719,127.7813 C406.0625,127.7813 406.25,127.75 406.375,127.6719 C406.6406,127.5156 406.7813,127.2344 406.7813,126.9375 C406.7813,126.6719 406.6719,126.4063 406.4375,126.2344 C406.2656,126.125 406.125,126.0938 405.6719,126.0938 L400.5313,126.0938 C400.0938,126.0938 399.9688,126.1094 399.8125,126.2031 C399.5625,126.3594 399.4063,126.6563 399.4063,126.9375 C399.4063,127.2188 399.5469,127.4688 399.7656,127.6406 C399.9219,127.75 400.1094,127.7813 400.5313,127.7813 L402.25,127.7813 L402.25,134.2969 L400.5313,134.2969 C400.0938,134.2969 399.9688,134.3125 399.8125,134.4219 C399.5625,134.5781 399.4063,134.8594 399.4063,135.1563 C399.4063,135.4063 399.5469,135.6719 399.7656,135.8281 C399.9219,135.9531 400.125,136 400.5313,136 L405.6719,136 C406.4219,136 406.7813,135.7188 406.7813,135.1563 C406.7813,134.875 406.6719,134.625 406.4375,134.4531 C406.2656,134.3281 406.125,134.2969 405.6719,134.2969 L403.9531,134.2969 L403.9531,127.7813 Z " fill="#000000"/><text fill="#000000" font-family="sans-serif" font-size="12" font-style="italic" lengthAdjust="spacing" textLength="20" x="417" y="135.1543">Var</text><line style="stroke:#A80036;stroke-width:1.5;" x1="389" x2="439" y1="147" y2="147"/><line style="stroke:#A80036;stroke-width:1.5;" x1="389" x2="439" y1="155" y2="155"/><!--MD5=[eb0f4986160aea42d9ece72995cb24c7]
class Struct--><rect codeLine="6" fill="#FEFECE" height="48" id="Struct" style="stroke:#A80036;stroke-width:1.5;" width="70" x="475" y="115"/><ellipse cx="490" cy="131" fill="#B4A7E5" rx="11" ry="11" style="stroke:#A80036;stroke-width:1.0;"/><path d="M490.9531,127.7813 L492.6719,127.7813 C493.0625,127.7813 493.25,127.75 493.375,127.6719 C493.6406,127.5156 493.7813,127.2344 493.7813,126.9375 C493.7813,126.6719 493.6719,126.4063 493.4375,126.2344 C493.2656,126.125 493.125,126.0938 492.6719,126.0938 L487.5313,126.0938 C487.0938,126.0938 486.9688,126.1094 486.8125,126.2031 C486.5625,126.3594 486.4063,126.6563 486.4063,126.9375 C486.4063,127.2188 486.5469,127.4688 486.7656,127.6406 C486.9219,127.75 487.1094,127.7813 487.5313,127.7813 L489.25,127.7813 L489.25,134.2969 L487.5313,134.2969 C487.0938,134.2969 486.9688,134.3125 486.8125,134.4219 C486.5625,134.5781 486.4063,134.8594 486.4063,135.1563 C486.4063,135.4063 486.5469,135.6719 486.7656,135.8281 C486.9219,135.9531 487.125,136 487.5313,136 L492.6719,136 C493.4219,136 493.7813,135.7188 493.7813,135.1563 C493.7813,134.875 493.6719,134.625 493.4375,134.4531 C493.2656,134.3281 493.125,134.2969 492.6719,134.2969 L490.9531,134.2969 L490.9531,127.7813 Z " fill="#000000"/><text fill="#000000" font-family="sans-serif" font-size="12" font-style="italic" lengthAdjust="spacing" textLength="38" x="504" y="135.1543">Struct</text><line style="stroke:#A80036;stroke-width:1.5;" x1="476" x2="544" y1="147" y2="147"/><line style="stroke:#A80036;stroke-width:1.5;" x1="476" x2="544" y1="155" y2="155"/><!--MD5=[f1926c784da000dbf2f9e262c4c094a8]
class Numeric--><rect codeLine="7" fill="#FEFECE" height="48" id="Numeric" style="stroke:#A80036;stroke-width:1.5;" width="83" x="105.5" y="223"/><ellipse cx="120.5" cy="239" fill="#B4A7E5" rx="11" ry="11" style="stroke:#A80036;stroke-width:1.0;"/><path d="M121.4531,235.7813 L123.1719,235.7813 C123.5625,235.7813 123.75,235.75 123.875,235.6719 C124.1406,235.5156 124.2813,235.2344 124.2813,234.9375 C124.2813,234.6719 124.1719,234.4063 123.9375,234.2344 C123.7656,234.125 123.625,234.0938 123.1719,234.0938 L118.0313,234.0938 C117.5938,234.0938 117.4688,234.1094 117.3125,234.2031 C117.0625,234.3594 116.9063,234.6563 116.9063,234.9375 C116.9063,235.2188 117.0469,235.4688 117.2656,235.6406 C117.4219,235.75 117.6094,235.7813 118.0313,235.7813 L119.75,235.7813 L119.75,242.2969 L118.0313,242.2969 C117.5938,242.2969 117.4688,242.3125 117.3125,242.4219 C117.0625,242.5781 116.9063,242.8594 116.9063,243.1563 C116.9063,243.4063 117.0469,243.6719 117.2656,243.8281 C117.4219,243.9531 117.625,244 118.0313,244 L123.1719,244 C123.9219,244 124.2813,243.7188 124.2813,243.1563 C124.2813,242.875 124.1719,242.625 123.9375,242.4531 C123.7656,242.3281 123.625,242.2969 123.1719,242.2969 L121.4531,242.2969 L121.4531,235.7813 Z " fill="#000000"/><text fill="#000000" font-family="sans-serif" font-size="12" font-style="italic" lengthAdjust="spacing" textLength="51" x="134.5" y="243.1543">Numeric</text><line style="stroke:#A80036;stroke-width:1.5;" x1="106.5" x2="187.5" y1="255" y2="255"/><line style="stroke:#A80036;stroke-width:1.5;" x1="106.5" x2="187.5" y1="263" y2="263"/><!--MD5=[ee42c820cde073a9007f0905fabb17c1]
class Integer--><rect codeLine="8" fill="#FEFECE" height="48" id="Integer" style="stroke:#A80036;stroke-width:1.5;" width="76" x="7" y="331"/><ellipse cx="22" cy="347" fill="#B4A7E5" rx="11" ry="11" style="stroke:#A80036;stroke-width:1.0;"/><path d="M22.9531,343.7813 L24.6719,343.7813 C25.0625,343.7813 25.25,343.75 25.375,343.6719 C25.6406,343.5156 25.7813,343.2344 25.7813,342.9375 C25.7813,342.6719 25.6719,342.4063 25.4375,342.2344 C25.2656,342.125 25.125,342.0938 24.6719,342.0938 L19.5313,342.0938 C19.0938,342.0938 18.9688,342.1094 18.8125,342.2031 C18.5625,342.3594 18.4063,342.6563 18.4063,342.9375 C18.4063,343.2188 18.5469,343.4688 18.7656,343.6406 C18.9219,343.75 19.1094,343.7813 19.5313,343.7813 L21.25,343.7813 L21.25,350.2969 L19.5313,350.2969 C19.0938,350.2969 18.9688,350.3125 18.8125,350.4219 C18.5625,350.5781 18.4063,350.8594 18.4063,351.1563 C18.4063,351.4063 18.5469,351.6719 18.7656,351.8281 C18.9219,351.9531 19.125,352 19.5313,352 L24.6719,352 C25.4219,352 25.7813,351.7188 25.7813,351.1563 C25.7813,350.875 25.6719,350.625 25.4375,350.4531 C25.2656,350.3281 25.125,350.2969 24.6719,350.2969 L22.9531,350.2969 L22.9531,343.7813 Z " fill="#000000"/><text fill="#000000" font-family="sans-serif" font-size="12" font-style="italic" lengthAdjust="spacing" textLength="44" x="36" y="351.1543">Integer</text><line style="stroke:#A80036;stroke-width:1.5;" x1="8" x2="82" y1="363" y2="363"/><line style="stroke:#A80036;stroke-width:1.5;" x1="8" x2="82" y1="371" y2="371"/><!--MD5=[5fd72fda0f3f342d877047943977dc6a]
class Real--><rect codeLine="9" fill="#FEFECE" height="48" id="Real" style="stroke:#A80036;stroke-width:1.5;" width="57" x="118.5" y="331"/><ellipse cx="133.5" cy="347" fill="#B4A7E5" rx="11" ry="11" style="stroke:#A80036;stroke-width:1.0;"/><path d="M134.4531,343.7813 L136.1719,343.7813 C136.5625,343.7813 136.75,343.75 136.875,343.6719 C137.1406,343.5156 137.2813,343.2344 137.2813,342.9375 C137.2813,342.6719 137.1719,342.4063 136.9375,342.2344 C136.7656,342.125 136.625,342.0938 136.1719,342.0938 L131.0313,342.0938 C130.5938,342.0938 130.4688,342.1094 130.3125,342.2031 C130.0625,342.3594 129.9063,342.6563 129.9063,342.9375 C129.9063,343.2188 130.0469,343.4688 130.2656,343.6406 C130.4219,343.75 130.6094,343.7813 131.0313,343.7813 L132.75,343.7813 L132.75,350.2969 L131.0313,350.2969 C130.5938,350.2969 130.4688,350.3125 130.3125,350.4219 C130.0625,350.5781 129.9063,350.8594 129.9063,351.1563 C129.9063,351.4063 130.0469,351.6719 130.2656,351.8281 C130.4219,351.9531 130.625,352 131.0313,352 L136.1719,352 C136.9219,352 137.2813,351.7188 137.2813,351.1563 C137.2813,350.875 137.1719,350.625 136.9375,350.4531 C136.7656,350.3281 136.625,350.2969 136.1719,350.2969 L134.4531,350.2969 L134.4531,343.7813 Z " fill="#000000"/><text fill="#000000" font-family="sans-serif" font-size="12" font-style="italic" lengthAdjust="spacing" textLength="25" x="147.5" y="351.1543">Real</text><line style="stroke:#A80036;stroke-width:1.5;" x1="119.5" x2="174.5" y1="363" y2="363"/><line style="stroke:#A80036;stroke-width:1.5;" x1="119.5" x2="174.5" y1="371" y2="371"/><!--MD5=[f18b0f967872e82ff276115ca1b4c569]
class Atom--><rect codeLine="10" fill="#FEFECE" height="48" id="Atom" style="stroke:#A80036;stroke-width:1.5;" width="64" x="288" y="223"/><ellipse cx="303" cy="239" fill="#B4A7E5" rx="11" ry="11" style="stroke:#A80036;stroke-width:1.0;"/><path d="M303.9531,235.7813 L305.6719,235.7813 C306.0625,235.7813 306.25,235.75 306.375,235.6719 C306.6406,235.5156 306.7813,235.2344 306.7813,234.9375 C306.7813,234.6719 306.6719,234.4063 306.4375,234.2344 C306.2656,234.125 306.125,234.0938 305.6719,234.0938 L300.5313,234.0938 C300.0938,234.0938 299.9688,234.1094 299.8125,234.2031 C299.5625,234.3594 299.4063,234.6563 299.4063,234.9375 C299.4063,235.2188 299.5469,235.4688 299.7656,235.6406 C299.9219,235.75 300.1094,235.7813 300.5313,235.7813 L302.25,235.7813 L302.25,242.2969 L300.5313,242.2969 C300.0938,242.2969 299.9688,242.3125 299.8125,242.4219 C299.5625,242.5781 299.4063,242.8594 299.4063,243.1563 C299.4063,243.4063 299.5469,243.6719 299.7656,243.8281 C299.9219,243.9531 300.125,244 300.5313,244 L305.6719,244 C306.4219,244 306.7813,243.7188 306.7813,243.1563 C306.7813,242.875 306.6719,242.625 306.4375,242.4531 C306.2656,242.3281 306.125,242.2969 305.6719,242.2969 L303.9531,242.2969 L303.9531,235.7813 Z " fill="#000000"/><text fill="#000000" font-family="sans-serif" font-size="12" font-style="italic" lengthAdjust="spacing" textLength="32" x="317" y="243.1543">Atom</text><line style="stroke:#A80036;stroke-width:1.5;" x1="289" x2="351" y1="255" y2="255"/><line style="stroke:#A80036;stroke-width:1.5;" x1="289" x2="351" y1="263" y2="263"/><!--MD5=[de147283bee8035b23b97cb1a9ddf59d]
class Truth--><rect codeLine="11" fill="#FEFECE" height="48" id="Truth" style="stroke:#A80036;stroke-width:1.5;" width="65" x="210.5" y="331"/><ellipse cx="225.5" cy="347" fill="#B4A7E5" rx="11" ry="11" style="stroke:#A80036;stroke-width:1.0;"/><path d="M226.4531,343.7813 L228.1719,343.7813 C228.5625,343.7813 228.75,343.75 228.875,343.6719 C229.1406,343.5156 229.2813,343.2344 229.2813,342.9375 C229.2813,342.6719 229.1719,342.4063 228.9375,342.2344 C228.7656,342.125 228.625,342.0938 228.1719,342.0938 L223.0313,342.0938 C222.5938,342.0938 222.4688,342.1094 222.3125,342.2031 C222.0625,342.3594 221.9063,342.6563 221.9063,342.9375 C221.9063,343.2188 222.0469,343.4688 222.2656,343.6406 C222.4219,343.75 222.6094,343.7813 223.0313,343.7813 L224.75,343.7813 L224.75,350.2969 L223.0313,350.2969 C222.5938,350.2969 222.4688,350.3125 222.3125,350.4219 C222.0625,350.5781 221.9063,350.8594 221.9063,351.1563 C221.9063,351.4063 222.0469,351.6719 222.2656,351.8281 C222.4219,351.9531 222.625,352 223.0313,352 L228.1719,352 C228.9219,352 229.2813,351.7188 229.2813,351.1563 C229.2813,350.875 229.1719,350.625 228.9375,350.4531 C228.7656,350.3281 228.625,350.2969 228.1719,350.2969 L226.4531,350.2969 L226.4531,343.7813 Z " fill="#000000"/><text fill="#000000" font-family="sans-serif" font-size="12" font-style="italic" lengthAdjust="spacing" textLength="33" x="239.5" y="351.1543">Truth</text><line style="stroke:#A80036;stroke-width:1.5;" x1="211.5" x2="274.5" y1="363" y2="363"/><line style="stroke:#A80036;stroke-width:1.5;" x1="211.5" x2="274.5" y1="371" y2="371"/><!--MD5=[ff04013806d21ddc19c98782fe2ddc6c]
class Indicator--><rect codeLine="12" fill="#FEFECE" height="48" id="Indicator" style="stroke:#A80036;stroke-width:1.5;" width="86" x="430" y="223"/><ellipse cx="445" cy="239" fill="#B4A7E5" rx="11" ry="11" style="stroke:#A80036;stroke-width:1.0;"/><path d="M445.9531,235.7813 L447.6719,235.7813 C448.0625,235.7813 448.25,235.75 448.375,235.6719 C448.6406,235.5156 448.7813,235.2344 448.7813,234.9375 C448.7813,234.6719 448.6719,234.4063 448.4375,234.2344 C448.2656,234.125 448.125,234.0938 447.6719,234.0938 L442.5313,234.0938 C442.0938,234.0938 441.9688,234.1094 441.8125,234.2031 C441.5625,234.3594 441.4063,234.6563 441.4063,234.9375 C441.4063,235.2188 441.5469,235.4688 441.7656,235.6406 C441.9219,235.75 442.1094,235.7813 442.5313,235.7813 L444.25,235.7813 L444.25,242.2969 L442.5313,242.2969 C442.0938,242.2969 441.9688,242.3125 441.8125,242.4219 C441.5625,242.5781 441.4063,242.8594 441.4063,243.1563 C441.4063,243.4063 441.5469,243.6719 441.7656,243.8281 C441.9219,243.9531 442.125,244 442.5313,244 L447.6719,244 C448.4219,244 448.7813,243.7188 448.7813,243.1563 C448.7813,242.875 448.6719,242.625 448.4375,242.4531 C448.2656,242.3281 448.125,242.2969 447.6719,242.2969 L445.9531,242.2969 L445.9531,235.7813 Z " fill="#000000"/><text fill="#000000" font-family="sans-serif" font-size="12" font-style="italic" lengthAdjust="spacing" textLength="54" x="459" y="243.1543">Indicator</text><line style="stroke:#A80036;stroke-width:1.5;" x1="431" x2="515" y1="255" y2="255"/><line style="stroke:#A80036;stroke-width:1.5;" x1="431" x2="515" y1="263" y2="263"/><!--MD5=[302c72c1573bd1a597976f8c721380e9]
class Empty--><rect codeLine="13" fill="#FEFECE" height="48" id="Empty" style="stroke:#A80036;stroke-width:1.5;" width="72" x="393" y="547"/><ellipse cx="408" cy="563" fill="#B4A7E5" rx="11" ry="11" style="stroke:#A80036;stroke-width:1.0;"/><path d="M408.9531,559.7813 L410.6719,559.7813 C411.0625,559.7813 411.25,559.75 411.375,559.6719 C411.6406,559.5156 411.7813,559.2344 411.7813,558.9375 C411.7813,558.6719 411.6719,558.4063 411.4375,558.2344 C411.2656,558.125 411.125,558.0938 410.6719,558.0938 L405.5313,558.0938 C405.0938,558.0938 404.9688,558.1094 404.8125,558.2031 C404.5625,558.3594 404.4063,558.6563 404.4063,558.9375 C404.4063,559.2188 404.5469,559.4688 404.7656,559.6406 C404.9219,559.75 405.1094,559.7813 405.5313,559.7813 L407.25,559.7813 L407.25,566.2969 L405.5313,566.2969 C405.0938,566.2969 404.9688,566.3125 404.8125,566.4219 C404.5625,566.5781 404.4063,566.8594 404.4063,567.1563 C404.4063,567.4063 404.5469,567.6719 404.7656,567.8281 C404.9219,567.9531 405.125,568 405.5313,568 L410.6719,568 C411.4219,568 411.7813,567.7188 411.7813,567.1563 C411.7813,566.875 411.6719,566.625 411.4375,566.4531 C411.2656,566.3281 411.125,566.2969 410.6719,566.2969 L408.9531,566.2969 L408.9531,559.7813 Z " fill="#000000"/><text fill="#000000" font-family="sans-serif" font-size="12" font-style="italic" lengthAdjust="spacing" textLength="40" x="422" y="567.1543">Empty</text><line style="stroke:#A80036;stroke-width:1.5;" x1="394" x2="464" y1="579" y2="579"/><line style="stroke:#A80036;stroke-width:1.5;" x1="394" x2="464" y1="587" y2="587"/><!--MD5=[d417ee715df4dddb7d3ff2725fa96357]
class EmptyBlock--><rect codeLine="14" fill="#FEFECE" height="48" id="EmptyBlock" style="stroke:#A80036;stroke-width:1.5;" width="104" x="607" y="439"/><ellipse cx="622" cy="455" fill="#B4A7E5" rx="11" ry="11" style="stroke:#A80036;stroke-width:1.0;"/><path d="M622.9531,451.7813 L624.6719,451.7813 C625.0625,451.7813 625.25,451.75 625.375,451.6719 C625.6406,451.5156 625.7813,451.2344 625.7813,450.9375 C625.7813,450.6719 625.6719,450.4063 625.4375,450.2344 C625.2656,450.125 625.125,450.0938 624.6719,450.0938 L619.5313,450.0938 C619.0938,450.0938 618.9688,450.1094 618.8125,450.2031 C618.5625,450.3594 618.4063,450.6563 618.4063,450.9375 C618.4063,451.2188 618.5469,451.4688 618.7656,451.6406 C618.9219,451.75 619.1094,451.7813 619.5313,451.7813 L621.25,451.7813 L621.25,458.2969 L619.5313,458.2969 C619.0938,458.2969 618.9688,458.3125 618.8125,458.4219 C618.5625,458.5781 618.4063,458.8594 618.4063,459.1563 C618.4063,459.4063 618.5469,459.6719 618.7656,459.8281 C618.9219,459.9531 619.125,460 619.5313,460 L624.6719,460 C625.4219,460 625.7813,459.7188 625.7813,459.1563 C625.7813,458.875 625.6719,458.625 625.4375,458.4531 C625.2656,458.3281 625.125,458.2969 624.6719,458.2969 L622.9531,458.2969 L622.9531,451.7813 Z " fill="#000000"/><text fill="#000000" font-family="sans-serif" font-size="12" font-style="italic" lengthAdjust="spacing" textLength="72" x="636" y="459.1543">EmptyBlock</text><line style="stroke:#A80036;stroke-width:1.5;" x1="608" x2="710" y1="471" y2="471"/><line style="stroke:#A80036;stroke-width:1.5;" x1="608" x2="710" y1="479" y2="479"/><!--MD5=[e7969329aebad34cb4c65e60c1606de9]
class EmptyList--><rect codeLine="15" fill="#FEFECE" height="48" id="EmptyList" style="stroke:#A80036;stroke-width:1.5;" width="93" x="382.5" y="439"/><ellipse cx="397.5" cy="455" fill="#B4A7E5" rx="11" ry="11" style="stroke:#A80036;stroke-width:1.0;"/><path d="M398.4531,451.7813 L400.1719,451.7813 C400.5625,451.7813 400.75,451.75 400.875,451.6719 C401.1406,451.5156 401.2813,451.2344 401.2813,450.9375 C401.2813,450.6719 401.1719,450.4063 400.9375,450.2344 C400.7656,450.125 400.625,450.0938 400.1719,450.0938 L395.0313,450.0938 C394.5938,450.0938 394.4688,450.1094 394.3125,450.2031 C394.0625,450.3594 393.9063,450.6563 393.9063,450.9375 C393.9063,451.2188 394.0469,451.4688 394.2656,451.6406 C394.4219,451.75 394.6094,451.7813 395.0313,451.7813 L396.75,451.7813 L396.75,458.2969 L395.0313,458.2969 C394.5938,458.2969 394.4688,458.3125 394.3125,458.4219 C394.0625,458.5781 393.9063,458.8594 393.9063,459.1563 C393.9063,459.4063 394.0469,459.6719 394.2656,459.8281 C394.4219,459.9531 394.625,460 395.0313,460 L400.1719,460 C400.9219,460 401.2813,459.7188 401.2813,459.1563 C401.2813,458.875 401.1719,458.625 400.9375,458.4531 C400.7656,458.3281 400.625,458.2969 400.1719,458.2969 L398.4531,458.2969 L398.4531,451.7813 Z " fill="#000000"/><text fill="#000000" font-family="sans-serif" font-size="12" font-style="italic" lengthAdjust="spacing" textLength="61" x="411.5" y="459.1543">EmptyList</text><line style="stroke:#A80036;stroke-width:1.5;" x1="383.5" x2="474.5" y1="471" y2="471"/><line style="stroke:#A80036;stroke-width:1.5;" x1="383.5" x2="474.5" y1="479" y2="479"/><!--MD5=[6e188d926ad014016d8bc646a38dd0b9]
class Recursive--><rect codeLine="16" fill="#FEFECE" height="48" id="Recursive" style="stroke:#A80036;stroke-width:1.5;" width="90" x="551" y="223"/><ellipse cx="566" cy="239" fill="#B4A7E5" rx="11" ry="11" style="stroke:#A80036;stroke-width:1.0;"/><path d="M566.9531,235.7813 L568.6719,235.7813 C569.0625,235.7813 569.25,235.75 569.375,235.6719 C569.6406,235.5156 569.7813,235.2344 569.7813,234.9375 C569.7813,234.6719 569.6719,234.4063 569.4375,234.2344 C569.2656,234.125 569.125,234.0938 568.6719,234.0938 L563.5313,234.0938 C563.0938,234.0938 562.9688,234.1094 562.8125,234.2031 C562.5625,234.3594 562.4063,234.6563 562.4063,234.9375 C562.4063,235.2188 562.5469,235.4688 562.7656,235.6406 C562.9219,235.75 563.1094,235.7813 563.5313,235.7813 L565.25,235.7813 L565.25,242.2969 L563.5313,242.2969 C563.0938,242.2969 562.9688,242.3125 562.8125,242.4219 C562.5625,242.5781 562.4063,242.8594 562.4063,243.1563 C562.4063,243.4063 562.5469,243.6719 562.7656,243.8281 C562.9219,243.9531 563.125,244 563.5313,244 L568.6719,244 C569.4219,244 569.7813,243.7188 569.7813,243.1563 C569.7813,242.875 569.6719,242.625 569.4375,242.4531 C569.2656,242.3281 569.125,242.2969 568.6719,242.2969 L566.9531,242.2969 L566.9531,235.7813 Z " fill="#000000"/><text fill="#000000" font-family="sans-serif" font-size="12" font-style="italic" lengthAdjust="spacing" textLength="58" x="580" y="243.1543">Recursive</text><line style="stroke:#A80036;stroke-width:1.5;" x1="552" x2="640" y1="255" y2="255"/><line style="stroke:#A80036;stroke-width:1.5;" x1="552" x2="640" y1="263" y2="263"/><!--MD5=[3d4177ac58b4411586d067f34e84928f]
class List--><rect codeLine="17" fill="#FEFECE" height="48" id="List" style="stroke:#A80036;stroke-width:1.5;" width="53" x="475.5" y="331"/><ellipse cx="490.5" cy="347" fill="#B4A7E5" rx="11" ry="11" style="stroke:#A80036;stroke-width:1.0;"/><path d="M491.4531,343.7813 L493.1719,343.7813 C493.5625,343.7813 493.75,343.75 493.875,343.6719 C494.1406,343.5156 494.2813,343.2344 494.2813,342.9375 C494.2813,342.6719 494.1719,342.4063 493.9375,342.2344 C493.7656,342.125 493.625,342.0938 493.1719,342.0938 L488.0313,342.0938 C487.5938,342.0938 487.4688,342.1094 487.3125,342.2031 C487.0625,342.3594 486.9063,342.6563 486.9063,342.9375 C486.9063,343.2188 487.0469,343.4688 487.2656,343.6406 C487.4219,343.75 487.6094,343.7813 488.0313,343.7813 L489.75,343.7813 L489.75,350.2969 L488.0313,350.2969 C487.5938,350.2969 487.4688,350.3125 487.3125,350.4219 C487.0625,350.5781 486.9063,350.8594 486.9063,351.1563 C486.9063,351.4063 487.0469,351.6719 487.2656,351.8281 C487.4219,351.9531 487.625,352 488.0313,352 L493.1719,352 C493.9219,352 494.2813,351.7188 494.2813,351.1563 C494.2813,350.875 494.1719,350.625 493.9375,350.4531 C493.7656,350.3281 493.625,350.2969 493.1719,350.2969 L491.4531,350.2969 L491.4531,343.7813 Z " fill="#000000"/><text fill="#000000" font-family="sans-serif" font-size="12" font-style="italic" lengthAdjust="spacing" textLength="21" x="504.5" y="351.1543">List</text><line style="stroke:#A80036;stroke-width:1.5;" x1="476.5" x2="527.5" y1="363" y2="363"/><line style="stroke:#A80036;stroke-width:1.5;" x1="476.5" x2="527.5" y1="371" y2="371"/><!--MD5=[e9bf4637ac83eb6af140c7019666e1f6]
class Cons--><rect codeLine="18" fill="#FEFECE" height="48" id="Cons" style="stroke:#A80036;stroke-width:1.5;" width="61" x="510.5" y="439"/><ellipse cx="525.5" cy="455" fill="#B4A7E5" rx="11" ry="11" style="stroke:#A80036;stroke-width:1.0;"/><path d="M526.4531,451.7813 L528.1719,451.7813 C528.5625,451.7813 528.75,451.75 528.875,451.6719 C529.1406,451.5156 529.2813,451.2344 529.2813,450.9375 C529.2813,450.6719 529.1719,450.4063 528.9375,450.2344 C528.7656,450.125 528.625,450.0938 528.1719,450.0938 L523.0313,450.0938 C522.5938,450.0938 522.4688,450.1094 522.3125,450.2031 C522.0625,450.3594 521.9063,450.6563 521.9063,450.9375 C521.9063,451.2188 522.0469,451.4688 522.2656,451.6406 C522.4219,451.75 522.6094,451.7813 523.0313,451.7813 L524.75,451.7813 L524.75,458.2969 L523.0313,458.2969 C522.5938,458.2969 522.4688,458.3125 522.3125,458.4219 C522.0625,458.5781 521.9063,458.8594 521.9063,459.1563 C521.9063,459.4063 522.0469,459.6719 522.2656,459.8281 C522.4219,459.9531 522.625,460 523.0313,460 L528.1719,460 C528.9219,460 529.2813,459.7188 529.2813,459.1563 C529.2813,458.875 529.1719,458.625 528.9375,458.4531 C528.7656,458.3281 528.625,458.2969 528.1719,458.2969 L526.4531,458.2969 L526.4531,451.7813 Z " fill="#000000"/><text fill="#000000" font-family="sans-serif" font-size="12" font-style="italic" lengthAdjust="spacing" textLength="29" x="539.5" y="459.1543">Cons</text><line style="stroke:#A80036;stroke-width:1.5;" x1="511.5" x2="570.5" y1="471" y2="471"/><line style="stroke:#A80036;stroke-width:1.5;" x1="511.5" x2="570.5" y1="479" y2="479"/><!--MD5=[68a0c021ad4fbab63794e91c3c368f48]
class Block--><rect codeLine="19" fill="#FEFECE" height="48" id="Block" style="stroke:#A80036;stroke-width:1.5;" width="64" x="564" y="331"/><ellipse cx="579" cy="347" fill="#B4A7E5" rx="11" ry="11" style="stroke:#A80036;stroke-width:1.0;"/><path d="M579.9531,343.7813 L581.6719,343.7813 C582.0625,343.7813 582.25,343.75 582.375,343.6719 C582.6406,343.5156 582.7813,343.2344 582.7813,342.9375 C582.7813,342.6719 582.6719,342.4063 582.4375,342.2344 C582.2656,342.125 582.125,342.0938 581.6719,342.0938 L576.5313,342.0938 C576.0938,342.0938 575.9688,342.1094 575.8125,342.2031 C575.5625,342.3594 575.4063,342.6563 575.4063,342.9375 C575.4063,343.2188 575.5469,343.4688 575.7656,343.6406 C575.9219,343.75 576.1094,343.7813 576.5313,343.7813 L578.25,343.7813 L578.25,350.2969 L576.5313,350.2969 C576.0938,350.2969 575.9688,350.3125 575.8125,350.4219 C575.5625,350.5781 575.4063,350.8594 575.4063,351.1563 C575.4063,351.4063 575.5469,351.6719 575.7656,351.8281 C575.9219,351.9531 576.125,352 576.5313,352 L581.6719,352 C582.4219,352 582.7813,351.7188 582.7813,351.1563 C582.7813,350.875 582.6719,350.625 582.4375,350.4531 C582.2656,350.3281 582.125,350.2969 581.6719,350.2969 L579.9531,350.2969 L579.9531,343.7813 Z " fill="#000000"/><text fill="#000000" font-family="sans-serif" font-size="12" font-style="italic" lengthAdjust="spacing" textLength="32" x="593" y="351.1543">Block</text><line style="stroke:#A80036;stroke-width:1.5;" x1="565" x2="627" y1="363" y2="363"/><line style="stroke:#A80036;stroke-width:1.5;" x1="565" x2="627" y1="371" y2="371"/><!--MD5=[064889823136230ed73fb5238d2f9216]
class Tuple--><rect codeLine="20" fill="#FEFECE" height="48" id="Tuple" style="stroke:#A80036;stroke-width:1.5;" width="65" x="663.5" y="331"/><ellipse cx="678.5" cy="347" fill="#B4A7E5" rx="11" ry="11" style="stroke:#A80036;stroke-width:1.0;"/><path d="M679.4531,343.7813 L681.1719,343.7813 C681.5625,343.7813 681.75,343.75 681.875,343.6719 C682.1406,343.5156 682.2813,343.2344 682.2813,342.9375 C682.2813,342.6719 682.1719,342.4063 681.9375,342.2344 C681.7656,342.125 681.625,342.0938 681.1719,342.0938 L676.0313,342.0938 C675.5938,342.0938 675.4688,342.1094 675.3125,342.2031 C675.0625,342.3594 674.9063,342.6563 674.9063,342.9375 C674.9063,343.2188 675.0469,343.4688 675.2656,343.6406 C675.4219,343.75 675.6094,343.7813 676.0313,343.7813 L677.75,343.7813 L677.75,350.2969 L676.0313,350.2969 C675.5938,350.2969 675.4688,350.3125 675.3125,350.4219 C675.0625,350.5781 674.9063,350.8594 674.9063,351.1563 C674.9063,351.4063 675.0469,351.6719 675.2656,351.8281 C675.4219,351.9531 675.625,352 676.0313,352 L681.1719,352 C681.9219,352 682.2813,351.7188 682.2813,351.1563 C682.2813,350.875 682.1719,350.625 681.9375,350.4531 C681.7656,350.3281 681.625,350.2969 681.1719,350.2969 L679.4531,350.2969 L679.4531,343.7813 Z " fill="#000000"/><text fill="#000000" font-family="sans-serif" font-size="12" font-style="italic" lengthAdjust="spacing" textLength="33" x="692.5" y="351.1543">Tuple</text><line style="stroke:#A80036;stroke-width:1.5;" x1="664.5" x2="727.5" y1="363" y2="363"/><line style="stroke:#A80036;stroke-width:1.5;" x1="664.5" x2="727.5" y1="371" y2="371"/><!--MD5=[3d9a9201f4e3c24a3b32edb25b35db95]
class Clause--><rect codeLine="50" fill="#FEFECE" height="48" id="Clause" style="stroke:#A80036;stroke-width:1.5;" width="71" x="757.5" y="223"/><ellipse cx="772.5" cy="239" fill="#B4A7E5" rx="11" ry="11" style="stroke:#A80036;stroke-width:1.0;"/><path d="M773.4531,235.7813 L775.1719,235.7813 C775.5625,235.7813 775.75,235.75 775.875,235.6719 C776.1406,235.5156 776.2813,235.2344 776.2813,234.9375 C776.2813,234.6719 776.1719,234.4063 775.9375,234.2344 C775.7656,234.125 775.625,234.0938 775.1719,234.0938 L770.0313,234.0938 C769.5938,234.0938 769.4688,234.1094 769.3125,234.2031 C769.0625,234.3594 768.9063,234.6563 768.9063,234.9375 C768.9063,235.2188 769.0469,235.4688 769.2656,235.6406 C769.4219,235.75 769.6094,235.7813 770.0313,235.7813 L771.75,235.7813 L771.75,242.2969 L770.0313,242.2969 C769.5938,242.2969 769.4688,242.3125 769.3125,242.4219 C769.0625,242.5781 768.9063,242.8594 768.9063,243.1563 C768.9063,243.4063 769.0469,243.6719 769.2656,243.8281 C769.4219,243.9531 769.625,244 770.0313,244 L775.1719,244 C775.9219,244 776.2813,243.7188 776.2813,243.1563 C776.2813,242.875 776.1719,242.625 775.9375,242.4531 C775.7656,242.3281 775.625,242.2969 775.1719,242.2969 L773.4531,242.2969 L773.4531,235.7813 Z " fill="#000000"/><text fill="#000000" font-family="sans-serif" font-size="12" font-style="italic" lengthAdjust="spacing" textLength="39" x="786.5" y="243.1543">Clause</text><line style="stroke:#A80036;stroke-width:1.5;" x1="758.5" x2="827.5" y1="255" y2="255"/><line style="stroke:#A80036;stroke-width:1.5;" x1="758.5" x2="827.5" y1="263" y2="263"/><!--MD5=[4cf87534c235239d37db4adfd136fff4]
class Rule--><rect codeLine="51" fill="#FEFECE" height="48" id="Rule" style="stroke:#A80036;stroke-width:1.5;" width="58" x="764" y="331"/><ellipse cx="779" cy="347" fill="#B4A7E5" rx="11" ry="11" style="stroke:#A80036;stroke-width:1.0;"/><path d="M779.9531,343.7813 L781.6719,343.7813 C782.0625,343.7813 782.25,343.75 782.375,343.6719 C782.6406,343.5156 782.7813,343.2344 782.7813,342.9375 C782.7813,342.6719 782.6719,342.4063 782.4375,342.2344 C782.2656,342.125 782.125,342.0938 781.6719,342.0938 L776.5313,342.0938 C776.0938,342.0938 775.9688,342.1094 775.8125,342.2031 C775.5625,342.3594 775.4063,342.6563 775.4063,342.9375 C775.4063,343.2188 775.5469,343.4688 775.7656,343.6406 C775.9219,343.75 776.1094,343.7813 776.5313,343.7813 L778.25,343.7813 L778.25,350.2969 L776.5313,350.2969 C776.0938,350.2969 775.9688,350.3125 775.8125,350.4219 C775.5625,350.5781 775.4063,350.8594 775.4063,351.1563 C775.4063,351.4063 775.5469,351.6719 775.7656,351.8281 C775.9219,351.9531 776.125,352 776.5313,352 L781.6719,352 C782.4219,352 782.7813,351.7188 782.7813,351.1563 C782.7813,350.875 782.6719,350.625 782.4375,350.4531 C782.2656,350.3281 782.125,350.2969 781.6719,350.2969 L779.9531,350.2969 L779.9531,343.7813 Z " fill="#000000"/><text fill="#000000" font-family="sans-serif" font-size="12" font-style="italic" lengthAdjust="spacing" textLength="26" x="793" y="351.1543">Rule</text><line style="stroke:#A80036;stroke-width:1.5;" x1="765" x2="821" y1="363" y2="363"/><line style="stroke:#A80036;stroke-width:1.5;" x1="765" x2="821" y1="371" y2="371"/><!--MD5=[326c2f491a5c94a5eb0f952bc2efd709]
class Directive--><rect codeLine="52" fill="#FEFECE" height="48" id="Directive" style="stroke:#A80036;stroke-width:1.5;" width="85" x="857.5" y="331"/><ellipse cx="872.5" cy="347" fill="#B4A7E5" rx="11" ry="11" style="stroke:#A80036;stroke-width:1.0;"/><path d="M873.4531,343.7813 L875.1719,343.7813 C875.5625,343.7813 875.75,343.75 875.875,343.6719 C876.1406,343.5156 876.2813,343.2344 876.2813,342.9375 C876.2813,342.6719 876.1719,342.4063 875.9375,342.2344 C875.7656,342.125 875.625,342.0938 875.1719,342.0938 L870.0313,342.0938 C869.5938,342.0938 869.4688,342.1094 869.3125,342.2031 C869.0625,342.3594 868.9063,342.6563 868.9063,342.9375 C868.9063,343.2188 869.0469,343.4688 869.2656,343.6406 C869.4219,343.75 869.6094,343.7813 870.0313,343.7813 L871.75,343.7813 L871.75,350.2969 L870.0313,350.2969 C869.5938,350.2969 869.4688,350.3125 869.3125,350.4219 C869.0625,350.5781 868.9063,350.8594 868.9063,351.1563 C868.9063,351.4063 869.0469,351.6719 869.2656,351.8281 C869.4219,351.9531 869.625,352 870.0313,352 L875.1719,352 C875.9219,352 876.2813,351.7188 876.2813,351.1563 C876.2813,350.875 876.1719,350.625 875.9375,350.4531 C875.7656,350.3281 875.625,350.2969 875.1719,350.2969 L873.4531,350.2969 L873.4531,343.7813 Z " fill="#000000"/><text fill="#000000" font-family="sans-serif" font-size="12" font-style="italic" lengthAdjust="spacing" textLength="53" x="886.5" y="351.1543">Directive</text><line style="stroke:#A80036;stroke-width:1.5;" x1="858.5" x2="941.5" y1="363" y2="363"/><line style="stroke:#A80036;stroke-width:1.5;" x1="858.5" x2="941.5" y1="371" y2="371"/><!--MD5=[8b7b02036613c263e1d0ae582a50c9f5]
class Fact--><rect codeLine="53" fill="#FEFECE" height="48" id="Fact" style="stroke:#A80036;stroke-width:1.5;" width="58" x="764" y="439"/><ellipse cx="779" cy="455" fill="#B4A7E5" rx="11" ry="11" style="stroke:#A80036;stroke-width:1.0;"/><path d="M779.9531,451.7813 L781.6719,451.7813 C782.0625,451.7813 782.25,451.75 782.375,451.6719 C782.6406,451.5156 782.7813,451.2344 782.7813,450.9375 C782.7813,450.6719 782.6719,450.4063 782.4375,450.2344 C782.2656,450.125 782.125,450.0938 781.6719,450.0938 L776.5313,450.0938 C776.0938,450.0938 775.9688,450.1094 775.8125,450.2031 C775.5625,450.3594 775.4063,450.6563 775.4063,450.9375 C775.4063,451.2188 775.5469,451.4688 775.7656,451.6406 C775.9219,451.75 776.1094,451.7813 776.5313,451.7813 L778.25,451.7813 L778.25,458.2969 L776.5313,458.2969 C776.0938,458.2969 775.9688,458.3125 775.8125,458.4219 C775.5625,458.5781 775.4063,458.8594 775.4063,459.1563 C775.4063,459.4063 775.5469,459.6719 775.7656,459.8281 C775.9219,459.9531 776.125,460 776.5313,460 L781.6719,460 C782.4219,460 782.7813,459.7188 782.7813,459.1563 C782.7813,458.875 782.6719,458.625 782.4375,458.4531 C782.2656,458.3281 782.125,458.2969 781.6719,458.2969 L779.9531,458.2969 L779.9531,451.7813 Z " fill="#000000"/><text fill="#000000" font-family="sans-serif" font-size="12" font-style="italic" lengthAdjust="spacing" textLength="26" x="793" y="459.1543">Fact</text><line style="stroke:#A80036;stroke-width:1.5;" x1="765" x2="821" y1="471" y2="471"/><line style="stroke:#A80036;stroke-width:1.5;" x1="765" x2="821" y1="479" y2="479"/><!--MD5=[f626f12429d76bc694cd64f7f069082d]
reverse link Term to Struct--><path codeLine="22" d="M448.621,70.227 C462.088,85.097 477.081,101.652 488.879,114.678 " fill="none" id="Term-backto-Struct" style="stroke:#A80036;stroke-width:1.0;"/><polygon fill="none" points="443.068,74.524,434.831,55,453.445,65.126,443.068,74.524" style="stroke:#A80036;stroke-width:1.0;"/><!--MD5=[22dcc2a6458fba43153ab5c044b6d0f2]
reverse link Term to Constant--><path codeLine="23" d="M377.423,69.28 C362.598,84.391 345.934,101.375 332.882,114.678 " fill="none" id="Term-backto-Constant" style="stroke:#A80036;stroke-width:1.0;"/><polygon fill="none" points="372.43,64.374,391.434,55,382.423,74.179,372.43,64.374" style="stroke:#A80036;stroke-width:1.0;"/><!--MD5=[6348e5cd8d5bc8163d36f1359c5d0625]
reverse link Term to Var--><path codeLine="24" d="M414,75.024 C414,88.579 414,103.038 414,114.678 " fill="none" id="Term-backto-Var" style="stroke:#A80036;stroke-width:1.0;"/><polygon fill="none" points="407,75,414,55,421,75,407,75" style="stroke:#A80036;stroke-width:1.0;"/><!--MD5=[70225964948051ed3e9096d211e8a754]
reverse link Constant to Numeric--><path codeLine="26" d="M257.645,174.047 C233.124,189.993 204.549,208.576 182.581,222.862 " fill="none" id="Constant-backto-Numeric" style="stroke:#A80036;stroke-width:1.0;"/><polygon fill="none" points="254.049,168.036,274.631,163,261.681,179.772,254.049,168.036" style="stroke:#A80036;stroke-width:1.0;"/><!--MD5=[904172204236467fd977e5a86c11fa2e]
reverse link Constant to Atom--><path codeLine="27" d="M314.059,183.024 C315.338,196.579 316.702,211.038 317.8,222.678 " fill="none" id="Constant-backto-Atom" style="stroke:#A80036;stroke-width:1.0;"/><polygon fill="none" points="307.079,183.57,312.17,163,321.017,182.255,307.079,183.57" style="stroke:#A80036;stroke-width:1.0;"/><!--MD5=[17d2d3c8e42a151c98c74cb7a0afd032]
reverse link Numeric to Real--><path codeLine="29" d="M147,291.024 C147,304.579 147,319.038 147,330.678 " fill="none" id="Numeric-backto-Real" style="stroke:#A80036;stroke-width:1.0;"/><polygon fill="none" points="140,291,147,271,154,291,140,291" style="stroke:#A80036;stroke-width:1.0;"/><!--MD5=[2b9b92e887eeff1b264561e6aba3c4bf]
reverse link Numeric to Integer--><path codeLine="30" d="M110.672,285.753 C96.2463,300.744 80.1094,317.514 67.4415,330.678 " fill="none" id="Numeric-backto-Integer" style="stroke:#A80036;stroke-width:1.0;"/><polygon fill="none" points="105.9559,280.558,124.868,271,116.044,290.266,105.9559,280.558" style="stroke:#A80036;stroke-width:1.0;"/><!--MD5=[71ce62bb6f3323542defcc754b11eb47]
reverse link Struct to Atom--><path codeLine="32" d="M457.063,169.533 C423.409,188.309 380.931,212.007 352.254,228.006 " fill="none" id="Struct-backto-Atom" style="stroke:#A80036;stroke-width:1.0;"/><polygon fill="none" points="453.832,163.32,474.708,159.689,460.652,175.547,453.832,163.32" style="stroke:#A80036;stroke-width:1.0;"/><!--MD5=[31790569203b5285c66d4dd61d3d15cf]
reverse link Struct to Recursive--><path codeLine="33" d="M541.4,178.702 C553.364,193.448 566.623,209.791 577.079,222.678 " fill="none" id="Struct-backto-Recursive" style="stroke:#A80036;stroke-width:1.0;"/><polygon fill="none" points="535.826,182.942,528.661,163,546.698,174.121,535.826,182.942" style="stroke:#A80036;stroke-width:1.0;"/><!--MD5=[bbce5c6e594f9519b0e03f998c702cd7]
reverse link Struct to Indicator--><path codeLine="34" d="M495.32,182.057 C490.492,195.889 485.3,210.761 481.141,222.678 " fill="none" id="Struct-backto-Indicator" style="stroke:#A80036;stroke-width:1.0;"/><polygon fill="none" points="488.771,179.576,501.972,163,501.989,184.19,488.771,179.576" style="stroke:#A80036;stroke-width:1.0;"/><!--MD5=[8acbf019754d4f584dfbfda41989f9f3]
reverse link Recursive to List--><path codeLine="36" d="M562.101,286.227 C548.914,301.097 534.233,317.652 522.681,330.678 " fill="none" id="Recursive-backto-List" style="stroke:#A80036;stroke-width:1.0;"/><polygon fill="none" points="557.096,281.32,575.603,271,567.571,290.609,557.096,281.32" style="stroke:#A80036;stroke-width:1.0;"/><!--MD5=[1ba13b162810dce5771118a04585de54]
reverse link Recursive to Tuple--><path codeLine="37" d="M631.616,285.753 C645.758,300.744 661.579,317.514 673.999,330.678 " fill="none" id="Recursive-backto-Tuple" style="stroke:#A80036;stroke-width:1.0;"/><polygon fill="none" points="626.331,290.352,617.699,271,636.515,280.745,626.331,290.352" style="stroke:#A80036;stroke-width:1.0;"/><!--MD5=[14c43ffa62f34001d738944f7d3010b4]
reverse link Recursive to Block--><path codeLine="38" d="M596,291.024 C596,304.579 596,319.038 596,330.678 " fill="none" id="Recursive-backto-Block" style="stroke:#A80036;stroke-width:1.0;"/><polygon fill="none" points="589,291,596,271,603,291,589,291" style="stroke:#A80036;stroke-width:1.0;"/><!--MD5=[5635cc4b99654f3c5c549950d77dd0db]
reverse link Atom to Truth--><path codeLine="40" d="M291.194,287.656 C280.665,302.15 269.101,318.068 259.941,330.678 " fill="none" id="Atom-backto-Truth" style="stroke:#A80036;stroke-width:1.0;"/><polygon fill="none" points="285.874,283.068,303.292,271,297.201,291.296,285.874,283.068" style="stroke:#A80036;stroke-width:1.0;"/><!--MD5=[898712309eb8fbecc3952bd38dd229e1]
reverse link Atom to Empty--><path codeLine="41" d="M322.08,291.304 C325.801,340.622 336.164,422.685 365,487 C375.05,509.4149 392.298,531.2707 406.358,546.9236 " fill="none" id="Atom-backto-Empty" style="stroke:#A80036;stroke-width:1.0;"/><polygon fill="none" points="315.08,291.535,320.795,271.131,329.052,290.645,315.08,291.535" style="stroke:#A80036;stroke-width:1.0;"/><!--MD5=[fcda1a5f81290cc689640184bf09b76b]
link EmptyList to Empty--><path codeLine="43" d="M429,487 C429,498.5885 429,513.0294 429,526.6013 " fill="none" id="EmptyList-to-Empty" style="stroke:#A80036;stroke-width:1.0;"/><polygon fill="none" points="436,526.6785,429,546.6784,422,526.6784,436,526.6785" style="stroke:#A80036;stroke-width:1.0;"/><!--MD5=[46028acb7ba302d8b1cec11676e9bd8b]
link EmptyBlock to Empty--><path codeLine="44" d="M609.093,487 C572.106,504.0466 521.724,527.2662 483.653,544.8119 " fill="none" id="EmptyBlock-to-Empty" style="stroke:#A80036;stroke-width:1.0;"/><polygon fill="none" points="486.363,551.2705,465.27,553.2844,480.504,538.5559,486.363,551.2705" style="stroke:#A80036;stroke-width:1.0;"/><!--MD5=[b5af1b3c3de85c746cad2571a0bb747a]
reverse link List to EmptyList--><path codeLine="46" d="M474.69,395.656 C464.708,410.15 453.746,426.068 445.061,438.678 " fill="none" id="List-backto-EmptyList" style="stroke:#A80036;stroke-width:1.0;"/><polygon fill="none" points="469.051,391.502,486.16,379,480.581,399.443,469.051,391.502" style="stroke:#A80036;stroke-width:1.0;"/><!--MD5=[86931e52732ee1979ef73de364a25d1a]
reverse link List to Cons--><path codeLine="47" d="M517.474,398.057 C522.563,411.889 528.035,426.761 532.419,438.678 " fill="none" id="List-backto-Cons" style="stroke:#A80036;stroke-width:1.0;"/><polygon fill="none" points="510.799,400.187,510.462,379,523.938,395.353,510.799,400.187" style="stroke:#A80036;stroke-width:1.0;"/><!--MD5=[fb0d7637cb380e79f9793bebd5d239da]
reverse link Block to EmptyBlock--><path codeLine="48" d="M620.138,396.613 C628.598,410.848 637.809,426.345 645.139,438.678 " fill="none" id="Block-backto-EmptyBlock" style="stroke:#A80036;stroke-width:1.0;"/><polygon fill="none" points="613.871,399.769,609.67,379,625.906,392.617,613.871,399.769" style="stroke:#A80036;stroke-width:1.0;"/><!--MD5=[b7702a11f4d6cfaf0543be0d76476975]
reverse link Struct to Clause--><path codeLine="54" d="M564.324,160.347 C621.128,181.624 708.643,214.403 757.286,232.623 " fill="none" id="Struct-backto-Clause" style="stroke:#A80036;stroke-width:1.0;"/><polygon fill="none" points="561.544,166.781,545.27,153.211,566.455,153.671,561.544,166.781" style="stroke:#A80036;stroke-width:1.0;"/><!--MD5=[f3bf6ee72f5e1a12bb542db493abdab0]
reverse link Clause to Rule--><path codeLine="55" d="M793,291.024 C793,304.579 793,319.038 793,330.678 " fill="none" id="Clause-backto-Rule" style="stroke:#A80036;stroke-width:1.0;"/><polygon fill="none" points="786,291,793,271,800,291,786,291" style="stroke:#A80036;stroke-width:1.0;"/><!--MD5=[528afe65e613338255b9ddfd2453915a]
reverse link Clause to Directive--><path codeLine="56" d="M830.632,285.28 C845.885,300.391 863.03,317.375 876.458,330.678 " fill="none" id="Clause-backto-Directive" style="stroke:#A80036;stroke-width:1.0;"/><polygon fill="none" points="825.499,290.049,816.217,271,835.352,280.103,825.499,290.049" style="stroke:#A80036;stroke-width:1.0;"/><!--MD5=[20e1b802e026257bc052a955cce88ea7]
reverse link Rule to Fact--><path codeLine="57" d="M793,399.024 C793,412.579 793,427.038 793,438.678 " fill="none" id="Rule-backto-Fact" style="stroke:#A80036;stroke-width:1.0;"/><polygon fill="none" points="786,399,793,379,800,399,786,399" style="stroke:#A80036;stroke-width:1.0;"/><!--MD5=[371ccc38dcfdcd3fc1118c58f0edb6b8]
@startuml
skinparam shadowing false

interface Term
interface Constant
interface Var
interface Struct
interface Numeric
interface Integer
interface Real
interface Atom
interface Truth
interface Indicator
interface Empty
interface EmptyBlock
interface EmptyList
interface Recursive
interface List
interface Cons
interface Block
interface Tuple

Term <|-down- Struct
Term <|-down- Constant
Term <|-down- Var

Constant <|-down- Numeric
Constant <|-down- Atom

Numeric <|-down- Real
Numeric <|-down- Integer

Struct <|-down- Atom
Struct <|-down- Recursive
Struct <|-down- Indicator

Recursive <|-down- List
Recursive <|-down- Tuple
Recursive <|-down- Block

Atom <|-down- Truth
Atom <|-down- Empty

Empty <|-up- EmptyList
Empty <|-up- EmptyBlock

List <|-down- EmptyList
List <|-down- Cons
Block <|-down- EmptyBlock

interface Clause
interface Rule
interface Directive
interface Fact
Struct <|-down- Clause
Clause <|-down- Rule
Clause <|-down- Directive
Rule <|-down- Fact
@enduml

PlantUML version 1.2021.17beta8(Unknown compile time)
(GPL source distribution)
Java Runtime: Java(TM) SE Runtime Environment
JVM: Java HotSpot(TM) 64-Bit Server VM
Default Encoding: UTF-8
Language: en
Country: US
--></g></svg>