<?xml version="1.0" encoding="UTF-8" standalone="no"?>
<svg
   contentScriptType="application/ecmascript"
   contentStyleType="text/css"
   height="602px"
   preserveAspectRatio="none"
   style="width:1096px;height:602px;background:#FFFFFF;"
   version="1.1"
   viewBox="0 0 1096 602"
   width="1096px"
   zoomAndPan="magnify"
   id="svg376"
   sodipodi:docname="terms.svg"
   inkscape:version="1.1.1 (3bf5ae0d25, 2021-09-20, custom)"
   xmlns:inkscape="http://www.inkscape.org/namespaces/inkscape"
   xmlns:sodipodi="http://sodipodi.sourceforge.net/DTD/sodipodi-0.dtd"
   xmlns="http://www.w3.org/2000/svg"
   xmlns:svg="http://www.w3.org/2000/svg">
  <sodipodi:namedview
     id="namedview378"
     pagecolor="#ffffff"
     bordercolor="#666666"
     borderopacity="1.0"
     inkscape:pageshadow="2"
     inkscape:pageopacity="0.0"
     inkscape:pagecheckerboard="0"
     showgrid="false"
     inkscape:snap-page="true"
     inkscape:zoom="0.7908372"
     inkscape:cx="436.87879"
     inkscape:cy="495.045"
     inkscape:window-width="1920"
     inkscape:window-height="1020"
     inkscape:window-x="0"
     inkscape:window-y="0"
     inkscape:window-maximized="1"
     inkscape:current-layer="svg376" />
  <defs
     id="defs2" />
  <g
     id="g374">
    <!--MD5=[9d35236b92952560f647498cf8a29acb]
class Term-->
    <rect
       codeLine="3"
       fill="#FEFECE"
       height="48"
       id="Term"
       style="stroke:#A80036;stroke-width:1.5;"
       width="63"
       x="480.5"
       y="7" />
    <ellipse
       cx="495.5"
       cy="23"
       fill="#B4A7E5"
       rx="11"
       ry="11"
       style="stroke:#A80036;stroke-width:1.0;"
       id="ellipse5" />
    <path
       d="M496.4531,19.7813 L498.1719,19.7813 C498.5625,19.7813 498.75,19.75 498.875,19.6719 C499.1406,19.5156 499.2813,19.2344 499.2813,18.9375 C499.2813,18.6719 499.1719,18.4063 498.9375,18.2344 C498.7656,18.125 498.625,18.0938 498.1719,18.0938 L493.0313,18.0938 C492.5938,18.0938 492.4688,18.1094 492.3125,18.2031 C492.0625,18.3594 491.9063,18.6563 491.9063,18.9375 C491.9063,19.2188 492.0469,19.4688 492.2656,19.6406 C492.4219,19.75 492.6094,19.7813 493.0313,19.7813 L494.75,19.7813 L494.75,26.2969 L493.0313,26.2969 C492.5938,26.2969 492.4688,26.3125 492.3125,26.4219 C492.0625,26.5781 491.9063,26.8594 491.9063,27.1563 C491.9063,27.4063 492.0469,27.6719 492.2656,27.8281 C492.4219,27.9531 492.625,28 493.0313,28 L498.1719,28 C498.9219,28 499.2813,27.7188 499.2813,27.1563 C499.2813,26.875 499.1719,26.625 498.9375,26.4531 C498.7656,26.3281 498.625,26.2969 498.1719,26.2969 L496.4531,26.2969 L496.4531,19.7813 Z "
       fill="#000000"
       id="path7" />
    <text
       fill="#000000"
       font-family="sans-serif"
       font-size="12"
       font-style="italic"
       lengthAdjust="spacing"
       textLength="31"
       x="509.5"
       y="27.1543"
       id="text9">Term</text>
    <line
       style="stroke:#A80036;stroke-width:1.5;"
       x1="481.5"
       x2="542.5"
       y1="39"
       y2="39"
       id="line11" />
    <line
       style="stroke:#A80036;stroke-width:1.5;"
       x1="481.5"
       x2="542.5"
       y1="47"
       y2="47"
       id="line13" />
    <!--MD5=[54b85b6d1a687c59d530998eb343c279]
class Constant-->
    <rect
       codeLine="4"
       fill="#FEFECE"
       height="48"
       id="Constant"
       style="stroke:#A80036;stroke-width:1.5;"
       width="86"
       x="345"
       y="115" />
    <ellipse
       cx="360"
       cy="131"
       fill="#B4A7E5"
       rx="11"
       ry="11"
       style="stroke:#A80036;stroke-width:1.0;"
       id="ellipse16" />
    <path
       d="M360.9531,127.7813 L362.6719,127.7813 C363.0625,127.7813 363.25,127.75 363.375,127.6719 C363.6406,127.5156 363.7813,127.2344 363.7813,126.9375 C363.7813,126.6719 363.6719,126.4063 363.4375,126.2344 C363.2656,126.125 363.125,126.0938 362.6719,126.0938 L357.5313,126.0938 C357.0938,126.0938 356.9688,126.1094 356.8125,126.2031 C356.5625,126.3594 356.4063,126.6563 356.4063,126.9375 C356.4063,127.2188 356.5469,127.4688 356.7656,127.6406 C356.9219,127.75 357.1094,127.7813 357.5313,127.7813 L359.25,127.7813 L359.25,134.2969 L357.5313,134.2969 C357.0938,134.2969 356.9688,134.3125 356.8125,134.4219 C356.5625,134.5781 356.4063,134.8594 356.4063,135.1563 C356.4063,135.4063 356.5469,135.6719 356.7656,135.8281 C356.9219,135.9531 357.125,136 357.5313,136 L362.6719,136 C363.4219,136 363.7813,135.7188 363.7813,135.1563 C363.7813,134.875 363.6719,134.625 363.4375,134.4531 C363.2656,134.3281 363.125,134.2969 362.6719,134.2969 L360.9531,134.2969 L360.9531,127.7813 Z "
       fill="#000000"
       id="path18" />
    <text
       fill="#000000"
       font-family="sans-serif"
       font-size="12"
       font-style="italic"
       lengthAdjust="spacing"
       textLength="54"
       x="374"
       y="135.1543"
       id="text20">Constant</text>
    <line
       style="stroke:#A80036;stroke-width:1.5;"
       x1="346"
       x2="430"
       y1="147"
       y2="147"
       id="line22" />
    <line
       style="stroke:#A80036;stroke-width:1.5;"
       x1="346"
       x2="430"
       y1="155"
       y2="155"
       id="line24" />
    <!--MD5=[731225e2007e13f9ac67fff186258580]
class Var-->
    <rect
       codeLine="5"
       fill="#FEFECE"
       height="48"
       id="Var"
       style="stroke:#A80036;stroke-width:1.5;"
       width="52"
       x="486"
       y="115" />
    <ellipse
       cx="501"
       cy="131"
       fill="#B4A7E5"
       rx="11"
       ry="11"
       style="stroke:#A80036;stroke-width:1.0;"
       id="ellipse27" />
    <path
       d="M501.9531,127.7813 L503.6719,127.7813 C504.0625,127.7813 504.25,127.75 504.375,127.6719 C504.6406,127.5156 504.7813,127.2344 504.7813,126.9375 C504.7813,126.6719 504.6719,126.4063 504.4375,126.2344 C504.2656,126.125 504.125,126.0938 503.6719,126.0938 L498.5313,126.0938 C498.0938,126.0938 497.9688,126.1094 497.8125,126.2031 C497.5625,126.3594 497.4063,126.6563 497.4063,126.9375 C497.4063,127.2188 497.5469,127.4688 497.7656,127.6406 C497.9219,127.75 498.1094,127.7813 498.5313,127.7813 L500.25,127.7813 L500.25,134.2969 L498.5313,134.2969 C498.0938,134.2969 497.9688,134.3125 497.8125,134.4219 C497.5625,134.5781 497.4063,134.8594 497.4063,135.1563 C497.4063,135.4063 497.5469,135.6719 497.7656,135.8281 C497.9219,135.9531 498.125,136 498.5313,136 L503.6719,136 C504.4219,136 504.7813,135.7188 504.7813,135.1563 C504.7813,134.875 504.6719,134.625 504.4375,134.4531 C504.2656,134.3281 504.125,134.2969 503.6719,134.2969 L501.9531,134.2969 L501.9531,127.7813 Z "
       fill="#000000"
       id="path29" />
    <text
       fill="#000000"
       font-family="sans-serif"
       font-size="12"
       font-style="italic"
       lengthAdjust="spacing"
       textLength="20"
       x="515"
       y="135.1543"
       id="text31">Var</text>
    <line
       style="stroke:#A80036;stroke-width:1.5;"
       x1="487"
       x2="537"
       y1="147"
       y2="147"
       id="line33" />
    <line
       style="stroke:#A80036;stroke-width:1.5;"
       x1="487"
       x2="537"
       y1="155"
       y2="155"
       id="line35" />
    <!--MD5=[eb0f4986160aea42d9ece72995cb24c7]
class Struct-->
    <rect
       codeLine="6"
       fill="#FEFECE"
       height="48"
       id="Struct"
       style="stroke:#A80036;stroke-width:1.5;"
       width="70"
       x="583"
       y="115" />
    <ellipse
       cx="598"
       cy="131"
       fill="#B4A7E5"
       rx="11"
       ry="11"
       style="stroke:#A80036;stroke-width:1.0;"
       id="ellipse38" />
    <path
       d="M598.9531,127.7813 L600.6719,127.7813 C601.0625,127.7813 601.25,127.75 601.375,127.6719 C601.6406,127.5156 601.7813,127.2344 601.7813,126.9375 C601.7813,126.6719 601.6719,126.4063 601.4375,126.2344 C601.2656,126.125 601.125,126.0938 600.6719,126.0938 L595.5313,126.0938 C595.0938,126.0938 594.9688,126.1094 594.8125,126.2031 C594.5625,126.3594 594.4063,126.6563 594.4063,126.9375 C594.4063,127.2188 594.5469,127.4688 594.7656,127.6406 C594.9219,127.75 595.1094,127.7813 595.5313,127.7813 L597.25,127.7813 L597.25,134.2969 L595.5313,134.2969 C595.0938,134.2969 594.9688,134.3125 594.8125,134.4219 C594.5625,134.5781 594.4063,134.8594 594.4063,135.1563 C594.4063,135.4063 594.5469,135.6719 594.7656,135.8281 C594.9219,135.9531 595.125,136 595.5313,136 L600.6719,136 C601.4219,136 601.7813,135.7188 601.7813,135.1563 C601.7813,134.875 601.6719,134.625 601.4375,134.4531 C601.2656,134.3281 601.125,134.2969 600.6719,134.2969 L598.9531,134.2969 L598.9531,127.7813 Z "
       fill="#000000"
       id="path40" />
    <text
       fill="#000000"
       font-family="sans-serif"
       font-size="12"
       font-style="italic"
       lengthAdjust="spacing"
       textLength="38"
       x="612"
       y="135.1543"
       id="text42">Struct</text>
    <line
       style="stroke:#A80036;stroke-width:1.5;"
       x1="584"
       x2="652"
       y1="147"
       y2="147"
       id="line44" />
    <line
       style="stroke:#A80036;stroke-width:1.5;"
       x1="584"
       x2="652"
       y1="155"
       y2="155"
       id="line46" />
    <!--MD5=[f1926c784da000dbf2f9e262c4c094a8]
class Numeric-->
    <rect
       codeLine="7"
       fill="#FEFECE"
       height="48"
       id="Numeric"
       style="stroke:#A80036;stroke-width:1.5;"
       width="83"
       x="336.5"
       y="223" />
    <ellipse
       cx="351.5"
       cy="239"
       fill="#B4A7E5"
       rx="11"
       ry="11"
       style="stroke:#A80036;stroke-width:1.0;"
       id="ellipse49" />
    <path
       d="M352.4531,235.7813 L354.1719,235.7813 C354.5625,235.7813 354.75,235.75 354.875,235.6719 C355.1406,235.5156 355.2813,235.2344 355.2813,234.9375 C355.2813,234.6719 355.1719,234.4063 354.9375,234.2344 C354.7656,234.125 354.625,234.0938 354.1719,234.0938 L349.0313,234.0938 C348.5938,234.0938 348.4688,234.1094 348.3125,234.2031 C348.0625,234.3594 347.9063,234.6563 347.9063,234.9375 C347.9063,235.2188 348.0469,235.4688 348.2656,235.6406 C348.4219,235.75 348.6094,235.7813 349.0313,235.7813 L350.75,235.7813 L350.75,242.2969 L349.0313,242.2969 C348.5938,242.2969 348.4688,242.3125 348.3125,242.4219 C348.0625,242.5781 347.9063,242.8594 347.9063,243.1563 C347.9063,243.4063 348.0469,243.6719 348.2656,243.8281 C348.4219,243.9531 348.625,244 349.0313,244 L354.1719,244 C354.9219,244 355.2813,243.7188 355.2813,243.1563 C355.2813,242.875 355.1719,242.625 354.9375,242.4531 C354.7656,242.3281 354.625,242.2969 354.1719,242.2969 L352.4531,242.2969 L352.4531,235.7813 Z "
       fill="#000000"
       id="path51" />
    <text
       fill="#000000"
       font-family="sans-serif"
       font-size="12"
       font-style="italic"
       lengthAdjust="spacing"
       textLength="51"
       x="365.5"
       y="243.1543"
       id="text53">Numeric</text>
    <line
       style="stroke:#A80036;stroke-width:1.5;"
       x1="337.5"
       x2="418.5"
       y1="255"
       y2="255"
       id="line55" />
    <line
       style="stroke:#A80036;stroke-width:1.5;"
       x1="337.5"
       x2="418.5"
       y1="263"
       y2="263"
       id="line57" />
    <!--MD5=[ee42c820cde073a9007f0905fabb17c1]
class Integer-->
    <rect
       codeLine="8"
       fill="#FEFECE"
       height="48"
       id="Integer"
       style="stroke:#A80036;stroke-width:1.5;"
       width="76"
       x="340"
       y="331" />
    <ellipse
       cx="355"
       cy="347"
       fill="#B4A7E5"
       rx="11"
       ry="11"
       style="stroke:#A80036;stroke-width:1.0;"
       id="ellipse60" />
    <path
       d="M355.9531,343.7813 L357.6719,343.7813 C358.0625,343.7813 358.25,343.75 358.375,343.6719 C358.6406,343.5156 358.7813,343.2344 358.7813,342.9375 C358.7813,342.6719 358.6719,342.4063 358.4375,342.2344 C358.2656,342.125 358.125,342.0938 357.6719,342.0938 L352.5313,342.0938 C352.0938,342.0938 351.9688,342.1094 351.8125,342.2031 C351.5625,342.3594 351.4063,342.6563 351.4063,342.9375 C351.4063,343.2188 351.5469,343.4688 351.7656,343.6406 C351.9219,343.75 352.1094,343.7813 352.5313,343.7813 L354.25,343.7813 L354.25,350.2969 L352.5313,350.2969 C352.0938,350.2969 351.9688,350.3125 351.8125,350.4219 C351.5625,350.5781 351.4063,350.8594 351.4063,351.1563 C351.4063,351.4063 351.5469,351.6719 351.7656,351.8281 C351.9219,351.9531 352.125,352 352.5313,352 L357.6719,352 C358.4219,352 358.7813,351.7188 358.7813,351.1563 C358.7813,350.875 358.6719,350.625 358.4375,350.4531 C358.2656,350.3281 358.125,350.2969 357.6719,350.2969 L355.9531,350.2969 L355.9531,343.7813 Z "
       fill="#000000"
       id="path62" />
    <text
       fill="#000000"
       font-family="sans-serif"
       font-size="12"
       font-style="italic"
       lengthAdjust="spacing"
       textLength="44"
       x="369"
       y="351.1543"
       id="text64">Integer</text>
    <line
       style="stroke:#A80036;stroke-width:1.5;"
       x1="341"
       x2="415"
       y1="363"
       y2="363"
       id="line66" />
    <line
       style="stroke:#A80036;stroke-width:1.5;"
       x1="341"
       x2="415"
       y1="371"
       y2="371"
       id="line68" />
    <!--MD5=[5fd72fda0f3f342d877047943977dc6a]
class Real-->
    <rect
       codeLine="9"
       fill="#FEFECE"
       height="48"
       id="Real"
       style="stroke:#A80036;stroke-width:1.5;"
       width="57"
       x="247.5"
       y="331" />
    <ellipse
       cx="262.5"
       cy="347"
       fill="#B4A7E5"
       rx="11"
       ry="11"
       style="stroke:#A80036;stroke-width:1.0;"
       id="ellipse71" />
    <path
       d="M263.4531,343.7813 L265.1719,343.7813 C265.5625,343.7813 265.75,343.75 265.875,343.6719 C266.1406,343.5156 266.2813,343.2344 266.2813,342.9375 C266.2813,342.6719 266.1719,342.4063 265.9375,342.2344 C265.7656,342.125 265.625,342.0938 265.1719,342.0938 L260.0313,342.0938 C259.5938,342.0938 259.4688,342.1094 259.3125,342.2031 C259.0625,342.3594 258.9063,342.6563 258.9063,342.9375 C258.9063,343.2188 259.0469,343.4688 259.2656,343.6406 C259.4219,343.75 259.6094,343.7813 260.0313,343.7813 L261.75,343.7813 L261.75,350.2969 L260.0313,350.2969 C259.5938,350.2969 259.4688,350.3125 259.3125,350.4219 C259.0625,350.5781 258.9063,350.8594 258.9063,351.1563 C258.9063,351.4063 259.0469,351.6719 259.2656,351.8281 C259.4219,351.9531 259.625,352 260.0313,352 L265.1719,352 C265.9219,352 266.2813,351.7188 266.2813,351.1563 C266.2813,350.875 266.1719,350.625 265.9375,350.4531 C265.7656,350.3281 265.625,350.2969 265.1719,350.2969 L263.4531,350.2969 L263.4531,343.7813 Z "
       fill="#000000"
       id="path73" />
    <text
       fill="#000000"
       font-family="sans-serif"
       font-size="12"
       font-style="italic"
       lengthAdjust="spacing"
       textLength="25"
       x="276.5"
       y="351.1543"
       id="text75">Real</text>
    <line
       style="stroke:#A80036;stroke-width:1.5;"
       x1="248.5"
       x2="303.5"
       y1="363"
       y2="363"
       id="line77" />
    <line
       style="stroke:#A80036;stroke-width:1.5;"
       x1="248.5"
       x2="303.5"
       y1="371"
       y2="371"
       id="line79" />
    <!--MD5=[f18b0f967872e82ff276115ca1b4c569]
class Atom-->
    <rect
       codeLine="10"
       fill="#FEFECE"
       height="48"
       id="Atom"
       style="stroke:#A80036;stroke-width:1.5;"
       width="64"
       x="469"
       y="223" />
    <ellipse
       cx="484"
       cy="239"
       fill="#B4A7E5"
       rx="11"
       ry="11"
       style="stroke:#A80036;stroke-width:1.0;"
       id="ellipse82" />
    <path
       d="M484.9531,235.7813 L486.6719,235.7813 C487.0625,235.7813 487.25,235.75 487.375,235.6719 C487.6406,235.5156 487.7813,235.2344 487.7813,234.9375 C487.7813,234.6719 487.6719,234.4063 487.4375,234.2344 C487.2656,234.125 487.125,234.0938 486.6719,234.0938 L481.5313,234.0938 C481.0938,234.0938 480.9688,234.1094 480.8125,234.2031 C480.5625,234.3594 480.4063,234.6563 480.4063,234.9375 C480.4063,235.2188 480.5469,235.4688 480.7656,235.6406 C480.9219,235.75 481.1094,235.7813 481.5313,235.7813 L483.25,235.7813 L483.25,242.2969 L481.5313,242.2969 C481.0938,242.2969 480.9688,242.3125 480.8125,242.4219 C480.5625,242.5781 480.4063,242.8594 480.4063,243.1563 C480.4063,243.4063 480.5469,243.6719 480.7656,243.8281 C480.9219,243.9531 481.125,244 481.5313,244 L486.6719,244 C487.4219,244 487.7813,243.7188 487.7813,243.1563 C487.7813,242.875 487.6719,242.625 487.4375,242.4531 C487.2656,242.3281 487.125,242.2969 486.6719,242.2969 L484.9531,242.2969 L484.9531,235.7813 Z "
       fill="#000000"
       id="path84" />
    <text
       fill="#000000"
       font-family="sans-serif"
       font-size="12"
       font-style="italic"
       lengthAdjust="spacing"
       textLength="32"
       x="498"
       y="243.1543"
       id="text86">Atom</text>
    <line
       style="stroke:#A80036;stroke-width:1.5;"
       x1="470"
       x2="532"
       y1="255"
       y2="255"
       id="line88" />
    <line
       style="stroke:#A80036;stroke-width:1.5;"
       x1="470"
       x2="532"
       y1="263"
       y2="263"
       id="line90" />
    <!--MD5=[de147283bee8035b23b97cb1a9ddf59d]
class Truth-->
    <rect
       codeLine="11"
       fill="#FEFECE"
       height="48"
       id="Truth"
       style="stroke:#A80036;stroke-width:1.5;"
       width="65"
       x="522.5"
       y="331" />
    <ellipse
       cx="537.5"
       cy="347"
       fill="#B4A7E5"
       rx="11"
       ry="11"
       style="stroke:#A80036;stroke-width:1.0;"
       id="ellipse93" />
    <path
       d="M538.4531,343.7813 L540.1719,343.7813 C540.5625,343.7813 540.75,343.75 540.875,343.6719 C541.1406,343.5156 541.2813,343.2344 541.2813,342.9375 C541.2813,342.6719 541.1719,342.4063 540.9375,342.2344 C540.7656,342.125 540.625,342.0938 540.1719,342.0938 L535.0313,342.0938 C534.5938,342.0938 534.4688,342.1094 534.3125,342.2031 C534.0625,342.3594 533.9063,342.6563 533.9063,342.9375 C533.9063,343.2188 534.0469,343.4688 534.2656,343.6406 C534.4219,343.75 534.6094,343.7813 535.0313,343.7813 L536.75,343.7813 L536.75,350.2969 L535.0313,350.2969 C534.5938,350.2969 534.4688,350.3125 534.3125,350.4219 C534.0625,350.5781 533.9063,350.8594 533.9063,351.1563 C533.9063,351.4063 534.0469,351.6719 534.2656,351.8281 C534.4219,351.9531 534.625,352 535.0313,352 L540.1719,352 C540.9219,352 541.2813,351.7188 541.2813,351.1563 C541.2813,350.875 541.1719,350.625 540.9375,350.4531 C540.7656,350.3281 540.625,350.2969 540.1719,350.2969 L538.4531,350.2969 L538.4531,343.7813 Z "
       fill="#000000"
       id="path95" />
    <text
       fill="#000000"
       font-family="sans-serif"
       font-size="12"
       font-style="italic"
       lengthAdjust="spacing"
       textLength="33"
       x="551.5"
       y="351.1543"
       id="text97">Truth</text>
    <line
       style="stroke:#A80036;stroke-width:1.5;"
       x1="523.5"
       x2="586.5"
       y1="363"
       y2="363"
       id="line99" />
    <line
       style="stroke:#A80036;stroke-width:1.5;"
       x1="523.5"
       x2="586.5"
       y1="371"
       y2="371"
       id="line101" />
    <!--MD5=[ff04013806d21ddc19c98782fe2ddc6c]
class Indicator-->
    <rect
       codeLine="12"
       fill="#FEFECE"
       height="48"
       id="Indicator"
       style="stroke:#A80036;stroke-width:1.5;"
       width="86"
       x="575"
       y="223" />
    <ellipse
       cx="590"
       cy="239"
       fill="#B4A7E5"
       rx="11"
       ry="11"
       style="stroke:#A80036;stroke-width:1.0;"
       id="ellipse104" />
    <path
       d="M590.9531,235.7813 L592.6719,235.7813 C593.0625,235.7813 593.25,235.75 593.375,235.6719 C593.6406,235.5156 593.7813,235.2344 593.7813,234.9375 C593.7813,234.6719 593.6719,234.4063 593.4375,234.2344 C593.2656,234.125 593.125,234.0938 592.6719,234.0938 L587.5313,234.0938 C587.0938,234.0938 586.9688,234.1094 586.8125,234.2031 C586.5625,234.3594 586.4063,234.6563 586.4063,234.9375 C586.4063,235.2188 586.5469,235.4688 586.7656,235.6406 C586.9219,235.75 587.1094,235.7813 587.5313,235.7813 L589.25,235.7813 L589.25,242.2969 L587.5313,242.2969 C587.0938,242.2969 586.9688,242.3125 586.8125,242.4219 C586.5625,242.5781 586.4063,242.8594 586.4063,243.1563 C586.4063,243.4063 586.5469,243.6719 586.7656,243.8281 C586.9219,243.9531 587.125,244 587.5313,244 L592.6719,244 C593.4219,244 593.7813,243.7188 593.7813,243.1563 C593.7813,242.875 593.6719,242.625 593.4375,242.4531 C593.2656,242.3281 593.125,242.2969 592.6719,242.2969 L590.9531,242.2969 L590.9531,235.7813 Z "
       fill="#000000"
       id="path106" />
    <text
       fill="#000000"
       font-family="sans-serif"
       font-size="12"
       font-style="italic"
       lengthAdjust="spacing"
       textLength="54"
       x="604"
       y="243.1543"
       id="text108">Indicator</text>
    <line
       style="stroke:#A80036;stroke-width:1.5;"
       x1="576"
       x2="660"
       y1="255"
       y2="255"
       id="line110" />
    <line
       style="stroke:#A80036;stroke-width:1.5;"
       x1="576"
       x2="660"
       y1="263"
       y2="263"
       id="line112" />
    <!--MD5=[302c72c1573bd1a597976f8c721380e9]
class Empty-->
    <rect
       codeLine="13"
       fill="#FEFECE"
       height="48"
       id="Empty"
       style="stroke:#A80036;stroke-width:1.5;"
       width="72"
       x="589"
       y="547" />
    <ellipse
       cx="604"
       cy="563"
       fill="#B4A7E5"
       rx="11"
       ry="11"
       style="stroke:#A80036;stroke-width:1.0;"
       id="ellipse115" />
    <path
       d="M604.9531,559.7813 L606.6719,559.7813 C607.0625,559.7813 607.25,559.75 607.375,559.6719 C607.6406,559.5156 607.7813,559.2344 607.7813,558.9375 C607.7813,558.6719 607.6719,558.4063 607.4375,558.2344 C607.2656,558.125 607.125,558.0938 606.6719,558.0938 L601.5313,558.0938 C601.0938,558.0938 600.9688,558.1094 600.8125,558.2031 C600.5625,558.3594 600.4063,558.6563 600.4063,558.9375 C600.4063,559.2188 600.5469,559.4688 600.7656,559.6406 C600.9219,559.75 601.1094,559.7813 601.5313,559.7813 L603.25,559.7813 L603.25,566.2969 L601.5313,566.2969 C601.0938,566.2969 600.9688,566.3125 600.8125,566.4219 C600.5625,566.5781 600.4063,566.8594 600.4063,567.1563 C600.4063,567.4063 600.5469,567.6719 600.7656,567.8281 C600.9219,567.9531 601.125,568 601.5313,568 L606.6719,568 C607.4219,568 607.7813,567.7188 607.7813,567.1563 C607.7813,566.875 607.6719,566.625 607.4375,566.4531 C607.2656,566.3281 607.125,566.2969 606.6719,566.2969 L604.9531,566.2969 L604.9531,559.7813 Z "
       fill="#000000"
       id="path117" />
    <text
       fill="#000000"
       font-family="sans-serif"
       font-size="12"
       font-style="italic"
       lengthAdjust="spacing"
       textLength="40"
       x="618"
       y="567.1543"
       id="text119">Empty</text>
    <line
       style="stroke:#A80036;stroke-width:1.5;"
       x1="590"
       x2="660"
       y1="579"
       y2="579"
       id="line121" />
    <line
       style="stroke:#A80036;stroke-width:1.5;"
       x1="590"
       x2="660"
       y1="587"
       y2="587"
       id="line123" />
    <!--MD5=[d417ee715df4dddb7d3ff2725fa96357]
class EmptyBlock-->
    <rect
       codeLine="14"
       fill="#FEFECE"
       height="48"
       id="EmptyBlock"
       style="stroke:#A80036;stroke-width:1.5;"
       width="104"
       x="803"
       y="439" />
    <ellipse
       cx="818"
       cy="455"
       fill="#B4A7E5"
       rx="11"
       ry="11"
       style="stroke:#A80036;stroke-width:1.0;"
       id="ellipse126" />
    <path
       d="M818.9531,451.7813 L820.6719,451.7813 C821.0625,451.7813 821.25,451.75 821.375,451.6719 C821.6406,451.5156 821.7813,451.2344 821.7813,450.9375 C821.7813,450.6719 821.6719,450.4063 821.4375,450.2344 C821.2656,450.125 821.125,450.0938 820.6719,450.0938 L815.5313,450.0938 C815.0938,450.0938 814.9688,450.1094 814.8125,450.2031 C814.5625,450.3594 814.4063,450.6563 814.4063,450.9375 C814.4063,451.2188 814.5469,451.4688 814.7656,451.6406 C814.9219,451.75 815.1094,451.7813 815.5313,451.7813 L817.25,451.7813 L817.25,458.2969 L815.5313,458.2969 C815.0938,458.2969 814.9688,458.3125 814.8125,458.4219 C814.5625,458.5781 814.4063,458.8594 814.4063,459.1563 C814.4063,459.4063 814.5469,459.6719 814.7656,459.8281 C814.9219,459.9531 815.125,460 815.5313,460 L820.6719,460 C821.4219,460 821.7813,459.7188 821.7813,459.1563 C821.7813,458.875 821.6719,458.625 821.4375,458.4531 C821.2656,458.3281 821.125,458.2969 820.6719,458.2969 L818.9531,458.2969 L818.9531,451.7813 Z "
       fill="#000000"
       id="path128" />
    <text
       fill="#000000"
       font-family="sans-serif"
       font-size="12"
       font-style="italic"
       lengthAdjust="spacing"
       textLength="72"
       x="832"
       y="459.1543"
       id="text130">EmptyBlock</text>
    <line
       style="stroke:#A80036;stroke-width:1.5;"
       x1="804"
       x2="906"
       y1="471"
       y2="471"
       id="line132" />
    <line
       style="stroke:#A80036;stroke-width:1.5;"
       x1="804"
       x2="906"
       y1="479"
       y2="479"
       id="line134" />
    <!--MD5=[e7969329aebad34cb4c65e60c1606de9]
class EmptyList-->
    <rect
       codeLine="15"
       fill="#FEFECE"
       height="48"
       id="EmptyList"
       style="stroke:#A80036;stroke-width:1.5;"
       width="93"
       x="578.5"
       y="439" />
    <ellipse
       cx="593.5"
       cy="455"
       fill="#B4A7E5"
       rx="11"
       ry="11"
       style="stroke:#A80036;stroke-width:1.0;"
       id="ellipse137" />
    <path
       d="M594.4531,451.7813 L596.1719,451.7813 C596.5625,451.7813 596.75,451.75 596.875,451.6719 C597.1406,451.5156 597.2813,451.2344 597.2813,450.9375 C597.2813,450.6719 597.1719,450.4063 596.9375,450.2344 C596.7656,450.125 596.625,450.0938 596.1719,450.0938 L591.0313,450.0938 C590.5938,450.0938 590.4688,450.1094 590.3125,450.2031 C590.0625,450.3594 589.9063,450.6563 589.9063,450.9375 C589.9063,451.2188 590.0469,451.4688 590.2656,451.6406 C590.4219,451.75 590.6094,451.7813 591.0313,451.7813 L592.75,451.7813 L592.75,458.2969 L591.0313,458.2969 C590.5938,458.2969 590.4688,458.3125 590.3125,458.4219 C590.0625,458.5781 589.9063,458.8594 589.9063,459.1563 C589.9063,459.4063 590.0469,459.6719 590.2656,459.8281 C590.4219,459.9531 590.625,460 591.0313,460 L596.1719,460 C596.9219,460 597.2813,459.7188 597.2813,459.1563 C597.2813,458.875 597.1719,458.625 596.9375,458.4531 C596.7656,458.3281 596.625,458.2969 596.1719,458.2969 L594.4531,458.2969 L594.4531,451.7813 Z "
       fill="#000000"
       id="path139" />
    <text
       fill="#000000"
       font-family="sans-serif"
       font-size="12"
       font-style="italic"
       lengthAdjust="spacing"
       textLength="61"
       x="607.5"
       y="459.1543"
       id="text141">EmptyList</text>
    <line
       style="stroke:#A80036;stroke-width:1.5;"
       x1="579.5"
       x2="670.5"
       y1="471"
       y2="471"
       id="line143" />
    <line
       style="stroke:#A80036;stroke-width:1.5;"
       x1="579.5"
       x2="670.5"
       y1="479"
       y2="479"
       id="line145" />
    <!--MD5=[6e188d926ad014016d8bc646a38dd0b9]
class Recursive-->
    <rect
       codeLine="16"
       fill="#FEFECE"
       height="48"
       id="Recursive"
       style="stroke:#A80036;stroke-width:1.5;"
       width="90"
       x="700"
       y="223" />
    <ellipse
       cx="715"
       cy="239"
       fill="#B4A7E5"
       rx="11"
       ry="11"
       style="stroke:#A80036;stroke-width:1.0;"
       id="ellipse148" />
    <path
       d="M715.9531,235.7813 L717.6719,235.7813 C718.0625,235.7813 718.25,235.75 718.375,235.6719 C718.6406,235.5156 718.7813,235.2344 718.7813,234.9375 C718.7813,234.6719 718.6719,234.4063 718.4375,234.2344 C718.2656,234.125 718.125,234.0938 717.6719,234.0938 L712.5313,234.0938 C712.0938,234.0938 711.9688,234.1094 711.8125,234.2031 C711.5625,234.3594 711.4063,234.6563 711.4063,234.9375 C711.4063,235.2188 711.5469,235.4688 711.7656,235.6406 C711.9219,235.75 712.1094,235.7813 712.5313,235.7813 L714.25,235.7813 L714.25,242.2969 L712.5313,242.2969 C712.0938,242.2969 711.9688,242.3125 711.8125,242.4219 C711.5625,242.5781 711.4063,242.8594 711.4063,243.1563 C711.4063,243.4063 711.5469,243.6719 711.7656,243.8281 C711.9219,243.9531 712.125,244 712.5313,244 L717.6719,244 C718.4219,244 718.7813,243.7188 718.7813,243.1563 C718.7813,242.875 718.6719,242.625 718.4375,242.4531 C718.2656,242.3281 718.125,242.2969 717.6719,242.2969 L715.9531,242.2969 L715.9531,235.7813 Z "
       fill="#000000"
       id="path150" />
    <text
       fill="#000000"
       font-family="sans-serif"
       font-size="12"
       font-style="italic"
       lengthAdjust="spacing"
       textLength="58"
       x="729"
       y="243.1543"
       id="text152">Recursive</text>
    <line
       style="stroke:#A80036;stroke-width:1.5;"
       x1="701"
       x2="789"
       y1="255"
       y2="255"
       id="line154" />
    <line
       style="stroke:#A80036;stroke-width:1.5;"
       x1="701"
       x2="789"
       y1="263"
       y2="263"
       id="line156" />
    <!--MD5=[3d4177ac58b4411586d067f34e84928f]
class List-->
    <rect
       codeLine="17"
       fill="#FEFECE"
       height="48"
       id="List"
       style="stroke:#A80036;stroke-width:1.5;"
       width="53"
       x="722.5"
       y="331" />
    <ellipse
       cx="737.5"
       cy="347"
       fill="#B4A7E5"
       rx="11"
       ry="11"
       style="stroke:#A80036;stroke-width:1.0;"
       id="ellipse159" />
    <path
       d="M738.4531,343.7813 L740.1719,343.7813 C740.5625,343.7813 740.75,343.75 740.875,343.6719 C741.1406,343.5156 741.2813,343.2344 741.2813,342.9375 C741.2813,342.6719 741.1719,342.4063 740.9375,342.2344 C740.7656,342.125 740.625,342.0938 740.1719,342.0938 L735.0313,342.0938 C734.5938,342.0938 734.4688,342.1094 734.3125,342.2031 C734.0625,342.3594 733.9063,342.6563 733.9063,342.9375 C733.9063,343.2188 734.0469,343.4688 734.2656,343.6406 C734.4219,343.75 734.6094,343.7813 735.0313,343.7813 L736.75,343.7813 L736.75,350.2969 L735.0313,350.2969 C734.5938,350.2969 734.4688,350.3125 734.3125,350.4219 C734.0625,350.5781 733.9063,350.8594 733.9063,351.1563 C733.9063,351.4063 734.0469,351.6719 734.2656,351.8281 C734.4219,351.9531 734.625,352 735.0313,352 L740.1719,352 C740.9219,352 741.2813,351.7188 741.2813,351.1563 C741.2813,350.875 741.1719,350.625 740.9375,350.4531 C740.7656,350.3281 740.625,350.2969 740.1719,350.2969 L738.4531,350.2969 L738.4531,343.7813 Z "
       fill="#000000"
       id="path161" />
    <text
       fill="#000000"
       font-family="sans-serif"
       font-size="12"
       font-style="italic"
       lengthAdjust="spacing"
       textLength="21"
       x="751.5"
       y="351.1543"
       id="text163">List</text>
    <line
       style="stroke:#A80036;stroke-width:1.5;"
       x1="723.5"
       x2="774.5"
       y1="363"
       y2="363"
       id="line165" />
    <line
       style="stroke:#A80036;stroke-width:1.5;"
       x1="723.5"
       x2="774.5"
       y1="371"
       y2="371"
       id="line167" />
    <!--MD5=[e9bf4637ac83eb6af140c7019666e1f6]
class Cons-->
    <rect
       codeLine="18"
       fill="#FEFECE"
       height="48"
       id="Cons"
       style="stroke:#A80036;stroke-width:1.5;"
       width="61"
       x="706.5"
       y="439" />
    <ellipse
       cx="721.5"
       cy="455"
       fill="#B4A7E5"
       rx="11"
       ry="11"
       style="stroke:#A80036;stroke-width:1.0;"
       id="ellipse170" />
    <path
       d="M722.4531,451.7813 L724.1719,451.7813 C724.5625,451.7813 724.75,451.75 724.875,451.6719 C725.1406,451.5156 725.2813,451.2344 725.2813,450.9375 C725.2813,450.6719 725.1719,450.4063 724.9375,450.2344 C724.7656,450.125 724.625,450.0938 724.1719,450.0938 L719.0313,450.0938 C718.5938,450.0938 718.4688,450.1094 718.3125,450.2031 C718.0625,450.3594 717.9063,450.6563 717.9063,450.9375 C717.9063,451.2188 718.0469,451.4688 718.2656,451.6406 C718.4219,451.75 718.6094,451.7813 719.0313,451.7813 L720.75,451.7813 L720.75,458.2969 L719.0313,458.2969 C718.5938,458.2969 718.4688,458.3125 718.3125,458.4219 C718.0625,458.5781 717.9063,458.8594 717.9063,459.1563 C717.9063,459.4063 718.0469,459.6719 718.2656,459.8281 C718.4219,459.9531 718.625,460 719.0313,460 L724.1719,460 C724.9219,460 725.2813,459.7188 725.2813,459.1563 C725.2813,458.875 725.1719,458.625 724.9375,458.4531 C724.7656,458.3281 724.625,458.2969 724.1719,458.2969 L722.4531,458.2969 L722.4531,451.7813 Z "
       fill="#000000"
       id="path172" />
    <text
       fill="#000000"
       font-family="sans-serif"
       font-size="12"
       font-style="italic"
       lengthAdjust="spacing"
       textLength="29"
       x="735.5"
       y="459.1543"
       id="text174">Cons</text>
    <line
       style="stroke:#A80036;stroke-width:1.5;"
       x1="707.5"
       x2="766.5"
       y1="471"
       y2="471"
       id="line176" />
    <line
       style="stroke:#A80036;stroke-width:1.5;"
       x1="707.5"
       x2="766.5"
       y1="479"
       y2="479"
       id="line178" />
    <!--MD5=[68a0c021ad4fbab63794e91c3c368f48]
class Block-->
    <rect
       codeLine="19"
       fill="#FEFECE"
       height="48"
       id="Block"
       style="stroke:#A80036;stroke-width:1.5;"
       width="64"
       x="811"
       y="331" />
    <ellipse
       cx="826"
       cy="347"
       fill="#B4A7E5"
       rx="11"
       ry="11"
       style="stroke:#A80036;stroke-width:1.0;"
       id="ellipse181" />
    <path
       d="M826.9531,343.7813 L828.6719,343.7813 C829.0625,343.7813 829.25,343.75 829.375,343.6719 C829.6406,343.5156 829.7813,343.2344 829.7813,342.9375 C829.7813,342.6719 829.6719,342.4063 829.4375,342.2344 C829.2656,342.125 829.125,342.0938 828.6719,342.0938 L823.5313,342.0938 C823.0938,342.0938 822.9688,342.1094 822.8125,342.2031 C822.5625,342.3594 822.4063,342.6563 822.4063,342.9375 C822.4063,343.2188 822.5469,343.4688 822.7656,343.6406 C822.9219,343.75 823.1094,343.7813 823.5313,343.7813 L825.25,343.7813 L825.25,350.2969 L823.5313,350.2969 C823.0938,350.2969 822.9688,350.3125 822.8125,350.4219 C822.5625,350.5781 822.4063,350.8594 822.4063,351.1563 C822.4063,351.4063 822.5469,351.6719 822.7656,351.8281 C822.9219,351.9531 823.125,352 823.5313,352 L828.6719,352 C829.4219,352 829.7813,351.7188 829.7813,351.1563 C829.7813,350.875 829.6719,350.625 829.4375,350.4531 C829.2656,350.3281 829.125,350.2969 828.6719,350.2969 L826.9531,350.2969 L826.9531,343.7813 Z "
       fill="#000000"
       id="path183" />
    <text
       fill="#000000"
       font-family="sans-serif"
       font-size="12"
       font-style="italic"
       lengthAdjust="spacing"
       textLength="32"
       x="840"
       y="351.1543"
       id="text185">Block</text>
    <line
       style="stroke:#A80036;stroke-width:1.5;"
       x1="812"
       x2="874"
       y1="363"
       y2="363"
       id="line187" />
    <line
       style="stroke:#A80036;stroke-width:1.5;"
       x1="812"
       x2="874"
       y1="371"
       y2="371"
       id="line189" />
    <!--MD5=[064889823136230ed73fb5238d2f9216]
class Tuple-->
    <rect
       codeLine="20"
       fill="#FEFECE"
       height="48"
       id="Tuple"
       style="stroke:#A80036;stroke-width:1.5;"
       width="65"
       x="622.5"
       y="331" />
    <ellipse
       cx="637.5"
       cy="347"
       fill="#B4A7E5"
       rx="11"
       ry="11"
       style="stroke:#A80036;stroke-width:1.0;"
       id="ellipse192" />
    <path
       d="M638.4531,343.7813 L640.1719,343.7813 C640.5625,343.7813 640.75,343.75 640.875,343.6719 C641.1406,343.5156 641.2813,343.2344 641.2813,342.9375 C641.2813,342.6719 641.1719,342.4063 640.9375,342.2344 C640.7656,342.125 640.625,342.0938 640.1719,342.0938 L635.0313,342.0938 C634.5938,342.0938 634.4688,342.1094 634.3125,342.2031 C634.0625,342.3594 633.9063,342.6563 633.9063,342.9375 C633.9063,343.2188 634.0469,343.4688 634.2656,343.6406 C634.4219,343.75 634.6094,343.7813 635.0313,343.7813 L636.75,343.7813 L636.75,350.2969 L635.0313,350.2969 C634.5938,350.2969 634.4688,350.3125 634.3125,350.4219 C634.0625,350.5781 633.9063,350.8594 633.9063,351.1563 C633.9063,351.4063 634.0469,351.6719 634.2656,351.8281 C634.4219,351.9531 634.625,352 635.0313,352 L640.1719,352 C640.9219,352 641.2813,351.7188 641.2813,351.1563 C641.2813,350.875 641.1719,350.625 640.9375,350.4531 C640.7656,350.3281 640.625,350.2969 640.1719,350.2969 L638.4531,350.2969 L638.4531,343.7813 Z "
       fill="#000000"
       id="path194" />
    <text
       fill="#000000"
       font-family="sans-serif"
       font-size="12"
       font-style="italic"
       lengthAdjust="spacing"
       textLength="33"
       x="651.5"
       y="351.1543"
       id="text196">Tuple</text>
    <line
       style="stroke:#A80036;stroke-width:1.5;"
       x1="623.5"
       x2="686.5"
       y1="363"
       y2="363"
       id="line198" />
    <line
       style="stroke:#A80036;stroke-width:1.5;"
       x1="623.5"
       x2="686.5"
       y1="371"
       y2="371"
       id="line200" />
    <!--MD5=[3d9a9201f4e3c24a3b32edb25b35db95]
class Clause-->
    <rect
       codeLine="50"
       fill="#FEFECE"
       height="48"
       id="Clause"
       style="stroke:#A80036;stroke-width:1.5;"
       width="71"
       x="917.5"
       y="223" />
    <ellipse
       cx="932.5"
       cy="239"
       fill="#B4A7E5"
       rx="11"
       ry="11"
       style="stroke:#A80036;stroke-width:1.0;"
       id="ellipse203" />
    <path
       d="M933.4531,235.7813 L935.1719,235.7813 C935.5625,235.7813 935.75,235.75 935.875,235.6719 C936.1406,235.5156 936.2813,235.2344 936.2813,234.9375 C936.2813,234.6719 936.1719,234.4063 935.9375,234.2344 C935.7656,234.125 935.625,234.0938 935.1719,234.0938 L930.0313,234.0938 C929.5938,234.0938 929.4688,234.1094 929.3125,234.2031 C929.0625,234.3594 928.9063,234.6563 928.9063,234.9375 C928.9063,235.2188 929.0469,235.4688 929.2656,235.6406 C929.4219,235.75 929.6094,235.7813 930.0313,235.7813 L931.75,235.7813 L931.75,242.2969 L930.0313,242.2969 C929.5938,242.2969 929.4688,242.3125 929.3125,242.4219 C929.0625,242.5781 928.9063,242.8594 928.9063,243.1563 C928.9063,243.4063 929.0469,243.6719 929.2656,243.8281 C929.4219,243.9531 929.625,244 930.0313,244 L935.1719,244 C935.9219,244 936.2813,243.7188 936.2813,243.1563 C936.2813,242.875 936.1719,242.625 935.9375,242.4531 C935.7656,242.3281 935.625,242.2969 935.1719,242.2969 L933.4531,242.2969 L933.4531,235.7813 Z "
       fill="#000000"
       id="path205" />
    <text
       fill="#000000"
       font-family="sans-serif"
       font-size="12"
       font-style="italic"
       lengthAdjust="spacing"
       textLength="39"
       x="946.5"
       y="243.1543"
       id="text207">Clause</text>
    <line
       style="stroke:#A80036;stroke-width:1.5;"
       x1="918.5"
       x2="987.5"
       y1="255"
       y2="255"
       id="line209" />
    <line
       style="stroke:#A80036;stroke-width:1.5;"
       x1="918.5"
       x2="987.5"
       y1="263"
       y2="263"
       id="line211" />
    <!--MD5=[4cf87534c235239d37db4adfd136fff4]
class Rule-->
    <rect
       codeLine="51"
       fill="#FEFECE"
       height="48"
       id="Rule"
       style="stroke:#A80036;stroke-width:1.5;"
       width="58"
       x="1031"
       y="331" />
    <ellipse
       cx="1046"
       cy="347"
       fill="#B4A7E5"
       rx="11"
       ry="11"
       style="stroke:#A80036;stroke-width:1.0;"
       id="ellipse214" />
    <path
       d="M1046.9531,343.7813 L1048.6719,343.7813 C1049.0625,343.7813 1049.25,343.75 1049.375,343.6719 C1049.6406,343.5156 1049.7813,343.2344 1049.7813,342.9375 C1049.7813,342.6719 1049.6719,342.4063 1049.4375,342.2344 C1049.2656,342.125 1049.125,342.0938 1048.6719,342.0938 L1043.5313,342.0938 C1043.0938,342.0938 1042.9688,342.1094 1042.8125,342.2031 C1042.5625,342.3594 1042.4063,342.6563 1042.4063,342.9375 C1042.4063,343.2188 1042.5469,343.4688 1042.7656,343.6406 C1042.9219,343.75 1043.1094,343.7813 1043.5313,343.7813 L1045.25,343.7813 L1045.25,350.2969 L1043.5313,350.2969 C1043.0938,350.2969 1042.9688,350.3125 1042.8125,350.4219 C1042.5625,350.5781 1042.4063,350.8594 1042.4063,351.1563 C1042.4063,351.4063 1042.5469,351.6719 1042.7656,351.8281 C1042.9219,351.9531 1043.125,352 1043.5313,352 L1048.6719,352 C1049.4219,352 1049.7813,351.7188 1049.7813,351.1563 C1049.7813,350.875 1049.6719,350.625 1049.4375,350.4531 C1049.2656,350.3281 1049.125,350.2969 1048.6719,350.2969 L1046.9531,350.2969 L1046.9531,343.7813 Z "
       fill="#000000"
       id="path216" />
    <text
       fill="#000000"
       font-family="sans-serif"
       font-size="12"
       font-style="italic"
       lengthAdjust="spacing"
       textLength="26"
       x="1060"
       y="351.1543"
       id="text218">Rule</text>
    <line
       style="stroke:#A80036;stroke-width:1.5;"
       x1="1032"
       x2="1088"
       y1="363"
       y2="363"
       id="line220" />
    <line
       style="stroke:#A80036;stroke-width:1.5;"
       x1="1032"
       x2="1088"
       y1="371"
       y2="371"
       id="line222" />
    <!--MD5=[326c2f491a5c94a5eb0f952bc2efd709]
class Directive-->
    <rect
       codeLine="52"
       fill="#FEFECE"
       height="48"
       id="Directive"
       style="stroke:#A80036;stroke-width:1.5;"
       width="85"
       x="910.5"
       y="331" />
    <ellipse
       cx="925.5"
       cy="347"
       fill="#B4A7E5"
       rx="11"
       ry="11"
       style="stroke:#A80036;stroke-width:1.0;"
       id="ellipse225" />
    <path
       d="M926.4531,343.7813 L928.1719,343.7813 C928.5625,343.7813 928.75,343.75 928.875,343.6719 C929.1406,343.5156 929.2813,343.2344 929.2813,342.9375 C929.2813,342.6719 929.1719,342.4063 928.9375,342.2344 C928.7656,342.125 928.625,342.0938 928.1719,342.0938 L923.0313,342.0938 C922.5938,342.0938 922.4688,342.1094 922.3125,342.2031 C922.0625,342.3594 921.9063,342.6563 921.9063,342.9375 C921.9063,343.2188 922.0469,343.4688 922.2656,343.6406 C922.4219,343.75 922.6094,343.7813 923.0313,343.7813 L924.75,343.7813 L924.75,350.2969 L923.0313,350.2969 C922.5938,350.2969 922.4688,350.3125 922.3125,350.4219 C922.0625,350.5781 921.9063,350.8594 921.9063,351.1563 C921.9063,351.4063 922.0469,351.6719 922.2656,351.8281 C922.4219,351.9531 922.625,352 923.0313,352 L928.1719,352 C928.9219,352 929.2813,351.7188 929.2813,351.1563 C929.2813,350.875 929.1719,350.625 928.9375,350.4531 C928.7656,350.3281 928.625,350.2969 928.1719,350.2969 L926.4531,350.2969 L926.4531,343.7813 Z "
       fill="#000000"
       id="path227" />
    <text
       fill="#000000"
       font-family="sans-serif"
       font-size="12"
       font-style="italic"
       lengthAdjust="spacing"
       textLength="53"
       x="939.5"
       y="351.1543"
       id="text229">Directive</text>
    <line
       style="stroke:#A80036;stroke-width:1.5;"
       x1="911.5"
       x2="994.5"
       y1="363"
       y2="363"
       id="line231" />
    <line
       style="stroke:#A80036;stroke-width:1.5;"
       x1="911.5"
       x2="994.5"
       y1="371"
       y2="371"
       id="line233" />
    <!--MD5=[8b7b02036613c263e1d0ae582a50c9f5]
class Fact-->
    <rect
       codeLine="53"
       fill="#FEFECE"
       height="48"
       id="Fact"
       style="stroke:#A80036;stroke-width:1.5;"
       width="58"
       x="1031"
       y="439" />
    <ellipse
       cx="1046"
       cy="455"
       fill="#B4A7E5"
       rx="11"
       ry="11"
       style="stroke:#A80036;stroke-width:1.0;"
       id="ellipse236" />
    <path
       d="M1046.9531,451.7813 L1048.6719,451.7813 C1049.0625,451.7813 1049.25,451.75 1049.375,451.6719 C1049.6406,451.5156 1049.7813,451.2344 1049.7813,450.9375 C1049.7813,450.6719 1049.6719,450.4063 1049.4375,450.2344 C1049.2656,450.125 1049.125,450.0938 1048.6719,450.0938 L1043.5313,450.0938 C1043.0938,450.0938 1042.9688,450.1094 1042.8125,450.2031 C1042.5625,450.3594 1042.4063,450.6563 1042.4063,450.9375 C1042.4063,451.2188 1042.5469,451.4688 1042.7656,451.6406 C1042.9219,451.75 1043.1094,451.7813 1043.5313,451.7813 L1045.25,451.7813 L1045.25,458.2969 L1043.5313,458.2969 C1043.0938,458.2969 1042.9688,458.3125 1042.8125,458.4219 C1042.5625,458.5781 1042.4063,458.8594 1042.4063,459.1563 C1042.4063,459.4063 1042.5469,459.6719 1042.7656,459.8281 C1042.9219,459.9531 1043.125,460 1043.5313,460 L1048.6719,460 C1049.4219,460 1049.7813,459.7188 1049.7813,459.1563 C1049.7813,458.875 1049.6719,458.625 1049.4375,458.4531 C1049.2656,458.3281 1049.125,458.2969 1048.6719,458.2969 L1046.9531,458.2969 L1046.9531,451.7813 Z "
       fill="#000000"
       id="path238" />
    <text
       fill="#000000"
       font-family="sans-serif"
       font-size="12"
       font-style="italic"
       lengthAdjust="spacing"
       textLength="26"
       x="1060"
       y="459.1543"
       id="text240">Fact</text>
    <line
       style="stroke:#A80036;stroke-width:1.5;"
       x1="1032"
       x2="1088"
       y1="471"
       y2="471"
       id="line242" />
    <line
       style="stroke:#A80036;stroke-width:1.5;"
       x1="1032"
       x2="1088"
       y1="479"
       y2="479"
       id="line244" />
    <!--MD5=[b426800acd6da9b6ecac1a582c45d730]
class Ref-->
    <rect
       codeLine="60"
       fill="#FEFECE"
       height="48"
       id="Ref"
       style="stroke:#A80036;stroke-width:1.5;"
       width="51"
       x="146.5"
       y="223" />
    <ellipse
       cx="161.5"
       cy="239"
       fill="#B4A7E5"
       rx="11"
       ry="11"
       style="stroke:#A80036;stroke-width:1.0;"
       id="ellipse247" />
    <path
       d="M162.4531,235.7813 L164.1719,235.7813 C164.5625,235.7813 164.75,235.75 164.875,235.6719 C165.1406,235.5156 165.2813,235.2344 165.2813,234.9375 C165.2813,234.6719 165.1719,234.4063 164.9375,234.2344 C164.7656,234.125 164.625,234.0938 164.1719,234.0938 L159.0313,234.0938 C158.5938,234.0938 158.4688,234.1094 158.3125,234.2031 C158.0625,234.3594 157.9063,234.6563 157.9063,234.9375 C157.9063,235.2188 158.0469,235.4688 158.2656,235.6406 C158.4219,235.75 158.6094,235.7813 159.0313,235.7813 L160.75,235.7813 L160.75,242.2969 L159.0313,242.2969 C158.5938,242.2969 158.4688,242.3125 158.3125,242.4219 C158.0625,242.5781 157.9063,242.8594 157.9063,243.1563 C157.9063,243.4063 158.0469,243.6719 158.2656,243.8281 C158.4219,243.9531 158.625,244 159.0313,244 L164.1719,244 C164.9219,244 165.2813,243.7188 165.2813,243.1563 C165.2813,242.875 165.1719,242.625 164.9375,242.4531 C164.7656,242.3281 164.625,242.2969 164.1719,242.2969 L162.4531,242.2969 L162.4531,235.7813 Z "
       fill="#000000"
       id="path249" />
    <text
       fill="#000000"
       font-family="sans-serif"
       font-size="12"
       font-style="italic"
       lengthAdjust="spacing"
       textLength="19"
       x="175.5"
       y="243.1543"
       id="text251">Ref</text>
    <line
       style="stroke:#A80036;stroke-width:1.5;"
       x1="147.5"
       x2="196.5"
       y1="255"
       y2="255"
       id="line253" />
    <line
       style="stroke:#A80036;stroke-width:1.5;"
       x1="147.5"
       x2="196.5"
       y1="263"
       y2="263"
       id="line255" />
    <!--MD5=[bb5d160990469bd4f965063233933f15]
class TypeRef-->
    <rect
       codeLine="61"
       fill="#FEFECE"
       height="48"
       id="TypeRef"
       style="stroke:#A80036;stroke-width:1.5;"
       width="80"
       x="132"
       y="331" />
    <ellipse
       cx="147"
       cy="347"
       fill="#B4A7E5"
       rx="11"
       ry="11"
       style="stroke:#A80036;stroke-width:1.0;"
       id="ellipse258" />
    <path
       d="M147.9531,343.7813 L149.6719,343.7813 C150.0625,343.7813 150.25,343.75 150.375,343.6719 C150.6406,343.5156 150.7813,343.2344 150.7813,342.9375 C150.7813,342.6719 150.6719,342.4063 150.4375,342.2344 C150.2656,342.125 150.125,342.0938 149.6719,342.0938 L144.5313,342.0938 C144.0938,342.0938 143.9688,342.1094 143.8125,342.2031 C143.5625,342.3594 143.4063,342.6563 143.4063,342.9375 C143.4063,343.2188 143.5469,343.4688 143.7656,343.6406 C143.9219,343.75 144.1094,343.7813 144.5313,343.7813 L146.25,343.7813 L146.25,350.2969 L144.5313,350.2969 C144.0938,350.2969 143.9688,350.3125 143.8125,350.4219 C143.5625,350.5781 143.4063,350.8594 143.4063,351.1563 C143.4063,351.4063 143.5469,351.6719 143.7656,351.8281 C143.9219,351.9531 144.125,352 144.5313,352 L149.6719,352 C150.4219,352 150.7813,351.7188 150.7813,351.1563 C150.7813,350.875 150.6719,350.625 150.4375,350.4531 C150.2656,350.3281 150.125,350.2969 149.6719,350.2969 L147.9531,350.2969 L147.9531,343.7813 Z "
       fill="#000000"
       id="path260" />
    <text
       fill="#000000"
       font-family="sans-serif"
       font-size="12"
       font-style="italic"
       lengthAdjust="spacing"
       textLength="48"
       x="161"
       y="351.1543"
       id="text262">TypeRef</text>
    <line
       style="stroke:#A80036;stroke-width:1.5;"
       x1="133"
       x2="211"
       y1="363"
       y2="363"
       id="line264" />
    <line
       style="stroke:#A80036;stroke-width:1.5;"
       x1="133"
       x2="211"
       y1="371"
       y2="371"
       id="line266" />
    <!--MD5=[24c813b3ce4d0a6d9787f260efc3e27a]
class ObjectRef-->
    <rect
       codeLine="62"
       fill="#FEFECE"
       height="48"
       id="ObjectRef"
       style="stroke:#A80036;stroke-width:1.5;"
       width="90"
       x="7"
       y="331" />
    <ellipse
       cx="22"
       cy="347"
       fill="#B4A7E5"
       rx="11"
       ry="11"
       style="stroke:#A80036;stroke-width:1.0;"
       id="ellipse269" />
    <path
       d="M22.9531,343.7813 L24.6719,343.7813 C25.0625,343.7813 25.25,343.75 25.375,343.6719 C25.6406,343.5156 25.7813,343.2344 25.7813,342.9375 C25.7813,342.6719 25.6719,342.4063 25.4375,342.2344 C25.2656,342.125 25.125,342.0938 24.6719,342.0938 L19.5313,342.0938 C19.0938,342.0938 18.9688,342.1094 18.8125,342.2031 C18.5625,342.3594 18.4063,342.6563 18.4063,342.9375 C18.4063,343.2188 18.5469,343.4688 18.7656,343.6406 C18.9219,343.75 19.1094,343.7813 19.5313,343.7813 L21.25,343.7813 L21.25,350.2969 L19.5313,350.2969 C19.0938,350.2969 18.9688,350.3125 18.8125,350.4219 C18.5625,350.5781 18.4063,350.8594 18.4063,351.1563 C18.4063,351.4063 18.5469,351.6719 18.7656,351.8281 C18.9219,351.9531 19.125,352 19.5313,352 L24.6719,352 C25.4219,352 25.7813,351.7188 25.7813,351.1563 C25.7813,350.875 25.6719,350.625 25.4375,350.4531 C25.2656,350.3281 25.125,350.2969 24.6719,350.2969 L22.9531,350.2969 L22.9531,343.7813 Z "
       fill="#000000"
       id="path271" />
    <text
       fill="#000000"
       font-family="sans-serif"
       font-size="12"
       font-style="italic"
       lengthAdjust="spacing"
       textLength="58"
       x="36"
       y="351.1543"
       id="text273">ObjectRef</text>
    <line
       style="stroke:#A80036;stroke-width:1.5;"
       x1="8"
       x2="96"
       y1="363"
       y2="363"
       id="line275" />
    <line
       style="stroke:#A80036;stroke-width:1.5;"
       x1="8"
       x2="96"
       y1="371"
       y2="371"
       id="line277" />
    <!--MD5=[3d6b35729b0ded3898c61e281952a9cf]
class NullRef-->
    <rect
       codeLine="63"
       fill="#FEFECE"
       height="48"
       id="NullRef"
       style="stroke:#A80036;stroke-width:1.5;"
       width="74"
       x="15"
       y="439" />
    <ellipse
       cx="30"
       cy="455"
       fill="#B4A7E5"
       rx="11"
       ry="11"
       style="stroke:#A80036;stroke-width:1.0;"
       id="ellipse280" />
    <path
       d="M30.9531,451.7813 L32.6719,451.7813 C33.0625,451.7813 33.25,451.75 33.375,451.6719 C33.6406,451.5156 33.7813,451.2344 33.7813,450.9375 C33.7813,450.6719 33.6719,450.4063 33.4375,450.2344 C33.2656,450.125 33.125,450.0938 32.6719,450.0938 L27.5313,450.0938 C27.0938,450.0938 26.9688,450.1094 26.8125,450.2031 C26.5625,450.3594 26.4063,450.6563 26.4063,450.9375 C26.4063,451.2188 26.5469,451.4688 26.7656,451.6406 C26.9219,451.75 27.1094,451.7813 27.5313,451.7813 L29.25,451.7813 L29.25,458.2969 L27.5313,458.2969 C27.0938,458.2969 26.9688,458.3125 26.8125,458.4219 C26.5625,458.5781 26.4063,458.8594 26.4063,459.1563 C26.4063,459.4063 26.5469,459.6719 26.7656,459.8281 C26.9219,459.9531 27.125,460 27.5313,460 L32.6719,460 C33.4219,460 33.7813,459.7188 33.7813,459.1563 C33.7813,458.875 33.6719,458.625 33.4375,458.4531 C33.2656,458.3281 33.125,458.2969 32.6719,458.2969 L30.9531,458.2969 L30.9531,451.7813 Z "
       fill="#000000"
       id="path282" />
    <text
       fill="#000000"
       font-family="sans-serif"
       font-size="12"
       font-style="italic"
       lengthAdjust="spacing"
       textLength="42"
       x="44"
       y="459.1543"
       id="text284">NullRef</text>
    <line
       style="stroke:#A80036;stroke-width:1.5;"
       x1="16"
       x2="88"
       y1="471"
       y2="471"
       id="line286" />
    <line
       style="stroke:#A80036;stroke-width:1.5;"
       x1="16"
       x2="88"
       y1="479"
       y2="479"
       id="line288" />
    <!--MD5=[f626f12429d76bc694cd64f7f069082d]
reverse link Term to Struct-->
    <path
       codeLine="22"
       d="M549.28,69.28 C564.391,84.391 581.375,101.375 594.678,114.678 "
       fill="none"
       id="Term-backto-Struct"
       style="stroke:#A80036;stroke-width:1.0;" />
    <polygon
       fill="none"
       points="544.193,74.092,535,55,554.092,64.193,544.193,74.092"
       style="stroke:#A80036;stroke-width:1.0;"
       id="polygon291" />
    <!--MD5=[22dcc2a6458fba43153ab5c044b6d0f2]
reverse link Term to Constant-->
    <path
       codeLine="23"
       d="M469.766,68.104 C451.751,83.503 431.249,101.029 415.282,114.678 "
       fill="none"
       id="Term-backto-Constant"
       style="stroke:#A80036;stroke-width:1.0;" />
    <polygon
       fill="none"
       points="465.343,62.675,485.094,55,474.44,73.317,465.343,62.675"
       style="stroke:#A80036;stroke-width:1.0;"
       id="polygon294" />
    <!--MD5=[6348e5cd8d5bc8163d36f1359c5d0625]
reverse link Term to Var-->
    <path
       codeLine="24"
       d="M512,75.024 C512,88.579 512,103.038 512,114.678 "
       fill="none"
       id="Term-backto-Var"
       style="stroke:#A80036;stroke-width:1.0;" />
    <polygon
       fill="none"
       points="505,75,512,55,519,75,505,75"
       style="stroke:#A80036;stroke-width:1.0;"
       id="polygon297" />
    <!--MD5=[70225964948051ed3e9096d211e8a754]
reverse link Constant to Numeric-->
    <path
       codeLine="26"
       d="M383.941,183.024 C382.662,196.579 381.298,211.038 380.2,222.678 "
       fill="none"
       id="Constant-backto-Numeric"
       style="stroke:#A80036;stroke-width:1.0;" />
    <polygon
       fill="none"
       points="376.983,182.255,385.83,163,390.921,183.57,376.983,182.255"
       style="stroke:#A80036;stroke-width:1.0;"
       id="polygon300" />
    <!--MD5=[904172204236467fd977e5a86c11fa2e]
reverse link Constant to Atom-->
    <path
       codeLine="27"
       d="M427.239,176.809 C443.473,192.036 461.809,209.237 476.138,222.678 "
       fill="none"
       id="Constant-backto-Atom"
       style="stroke:#A80036;stroke-width:1.0;" />
    <polygon
       fill="none"
       points="422.317,181.789,412.519,163,431.895,171.578,422.317,181.789"
       style="stroke:#A80036;stroke-width:1.0;"
       id="polygon303" />
    <!--MD5=[17d2d3c8e42a151c98c74cb7a0afd032]
reverse link Numeric to Real-->
    <path
       codeLine="29"
       d="M341.672,285.753 C327.246,300.744 311.109,317.514 298.442,330.678 "
       fill="none"
       id="Numeric-backto-Real"
       style="stroke:#A80036;stroke-width:1.0;" />
    <polygon
       fill="none"
       points="336.956,280.558,355.868,271,347.044,290.266,336.956,280.558"
       style="stroke:#A80036;stroke-width:1.0;"
       id="polygon306" />
    <!--MD5=[2b9b92e887eeff1b264561e6aba3c4bf]
reverse link Numeric to Integer-->
    <path
       codeLine="30"
       d="M378,291.024 C378,304.579 378,319.038 378,330.678 "
       fill="none"
       id="Numeric-backto-Integer"
       style="stroke:#A80036;stroke-width:1.0;" />
    <polygon
       fill="none"
       points="371,291,378,271,385,291,371,291"
       style="stroke:#A80036;stroke-width:1.0;"
       id="polygon309" />
    <!--MD5=[71ce62bb6f3323542defcc754b11eb47]
reverse link Struct to Atom-->
    <path
       codeLine="32"
       d="M577.631,176.573 C560.76,191.859 541.655,209.167 526.742,222.678 "
       fill="none"
       id="Struct-backto-Atom"
       style="stroke:#A80036;stroke-width:1.0;" />
    <polygon
       fill="none"
       points="573.091,171.241,592.613,163,582.491,181.616,573.091,171.241"
       style="stroke:#A80036;stroke-width:1.0;"
       id="polygon312" />
    <!--MD5=[31790569203b5285c66d4dd61d3d15cf]
reverse link Struct to Recursive-->
    <path
       codeLine="33"
       d="M660.975,175.869 C679.494,191.325 700.621,208.959 717.058,222.678 "
       fill="none"
       id="Struct-backto-Recursive"
       style="stroke:#A80036;stroke-width:1.0;" />
    <polygon
       fill="none"
       points="656.426,181.19,645.557,163,665.397,170.442,656.426,181.19"
       style="stroke:#A80036;stroke-width:1.0;"
       id="polygon315" />
    <!--MD5=[bbce5c6e594f9519b0e03f998c702cd7]
reverse link Struct to Indicator-->
    <path
       codeLine="34"
       d="M618,183.024 C618,196.579 618,211.038 618,222.678 "
       fill="none"
       id="Struct-backto-Indicator"
       style="stroke:#A80036;stroke-width:1.0;" />
    <polygon
       fill="none"
       points="611,183,618,163,625,183,611,183"
       style="stroke:#A80036;stroke-width:1.0;"
       id="polygon318" />
    <!--MD5=[8acbf019754d4f584dfbfda41989f9f3]
reverse link Recursive to List-->
    <path
       codeLine="36"
       d="M746.624,291.024 C747.135,304.579 747.681,319.038 748.12,330.678 "
       fill="none"
       id="Recursive-backto-List"
       style="stroke:#A80036;stroke-width:1.0;" />
    <polygon
       fill="none"
       points="739.627,291.25,745.868,271,753.617,290.722,739.627,291.25"
       style="stroke:#A80036;stroke-width:1.0;"
       id="polygon321" />
    <!--MD5=[1ba13b162810dce5771118a04585de54]
reverse link Recursive to Tuple-->
    <path
       codeLine="37"
       d="M712.14,286.702 C699.619,301.448 685.744,317.791 674.801,330.678 "
       fill="none"
       id="Recursive-backto-Tuple"
       style="stroke:#A80036;stroke-width:1.0;" />
    <polygon
       fill="none"
       points="707.191,281.716,725.471,271,717.863,290.777,707.191,281.716"
       style="stroke:#A80036;stroke-width:1.0;"
       id="polygon324" />
    <!--MD5=[14c43ffa62f34001d738944f7d3010b4]
reverse link Recursive to Block-->
    <path
       codeLine="38"
       d="M779.904,285.753 C793.763,300.744 809.267,317.514 821.439,330.678 "
       fill="none"
       id="Recursive-backto-Block"
       style="stroke:#A80036;stroke-width:1.0;" />
    <polygon
       fill="none"
       points="774.702,290.438,766.265,271,784.982,280.934,774.702,290.438"
       style="stroke:#A80036;stroke-width:1.0;"
       id="polygon327" />
    <!--MD5=[5635cc4b99654f3c5c549950d77dd0db]
reverse link Atom to Truth-->
    <path
       codeLine="40"
       d="M521.934,289.094 C529.119,303.196 536.907,318.484 543.119,330.678 "
       fill="none"
       id="Atom-backto-Truth"
       style="stroke:#A80036;stroke-width:1.0;" />
    <polygon
       fill="none"
       points="515.558,291.999,512.717,271,528.033,285.644,515.558,291.999"
       style="stroke:#A80036;stroke-width:1.0;"
       id="polygon330" />
    <!--MD5=[898712309eb8fbecc3952bd38dd229e1]
reverse link Atom to Empty-->
    <path
       codeLine="41"
       d="M497.538,291.27 C496.642,317.133 497.565,350.413 505,379 C522.644,446.842 574.283,513.1922 603.75,546.9686 "
       fill="none"
       id="Atom-backto-Empty"
       style="stroke:#A80036;stroke-width:1.0;" />
    <polygon
       fill="none"
       points="490.557,290.741,498.646,271.156,504.536,291.511,490.557,290.741"
       style="stroke:#A80036;stroke-width:1.0;"
       id="polygon333" />
    <!--MD5=[fcda1a5f81290cc689640184bf09b76b]
link EmptyList to Empty-->
    <path
       codeLine="43"
       d="M625,487 C625,498.5885 625,513.0294 625,526.6013 "
       fill="none"
       id="EmptyList-to-Empty"
       style="stroke:#A80036;stroke-width:1.0;" />
    <polygon
       fill="none"
       points="632,526.6785,625,546.6784,618,526.6784,632,526.6785"
       style="stroke:#A80036;stroke-width:1.0;"
       id="polygon336" />
    <!--MD5=[46028acb7ba302d8b1cec11676e9bd8b]
link EmptyBlock to Empty-->
    <path
       codeLine="44"
       d="M805.093,487 C768.106,504.0466 717.724,527.2662 679.653,544.8119 "
       fill="none"
       id="EmptyBlock-to-Empty"
       style="stroke:#A80036;stroke-width:1.0;" />
    <polygon
       fill="none"
       points="682.363,551.2705,661.27,553.2844,676.504,538.5559,682.363,551.2705"
       style="stroke:#A80036;stroke-width:1.0;"
       id="polygon339" />
    <!--MD5=[b5af1b3c3de85c746cad2571a0bb747a]
reverse link List to EmptyList-->
    <path
       codeLine="46"
       d="M706.955,391.942 C688.783,407.476 668.05,425.199 651.985,438.932 "
       fill="none"
       id="List-backto-EmptyList"
       style="stroke:#A80036;stroke-width:1.0;" />
    <polygon
       fill="none"
       points="702.648,386.414,722.399,378.74,711.745,397.056,702.648,386.414"
       style="stroke:#A80036;stroke-width:1.0;"
       id="polygon342" />
    <!--MD5=[86931e52732ee1979ef73de364a25d1a]
reverse link List to Cons-->
    <path
       codeLine="47"
       d="M744.129,399.024 C742.595,412.579 740.958,427.038 739.64,438.678 "
       fill="none"
       id="List-backto-Cons"
       style="stroke:#A80036;stroke-width:1.0;" />
    <polygon
       fill="none"
       points="737.191,398.086,746.396,379,751.102,399.661,737.191,398.086"
       style="stroke:#A80036;stroke-width:1.0;"
       id="polygon345" />
    <!--MD5=[fb0d7637cb380e79f9793bebd5d239da]
reverse link Block to EmptyBlock-->
    <path
       codeLine="48"
       d="M847.871,399.024 C849.405,412.579 851.042,427.038 852.36,438.678 "
       fill="none"
       id="Block-backto-EmptyBlock"
       style="stroke:#A80036;stroke-width:1.0;" />
    <polygon
       fill="none"
       points="840.898,399.661,845.604,379,854.809,398.086,840.898,399.661"
       style="stroke:#A80036;stroke-width:1.0;"
       id="polygon348" />
    <!--MD5=[b7702a11f4d6cfaf0543be0d76476975]
reverse link Struct to Clause-->
    <path
       codeLine="54"
       d="M672.606,157.278 C741.762,179.161 858.952,216.242 917.499,234.767 "
       fill="none"
       id="Struct-backto-Clause"
       style="stroke:#A80036;stroke-width:1.0;" />
    <polygon
       fill="none"
       points="670.174,163.851,653.218,151.144,674.398,150.503,670.174,163.851"
       style="stroke:#A80036;stroke-width:1.0;"
       id="polygon351" />
    <!--MD5=[f3bf6ee72f5e1a12bb542db493abdab0]
reverse link Clause to Rule-->
    <path
       codeLine="55"
       d="M990.632,285.28 C1005.885,300.391 1023.03,317.375 1036.46,330.678 "
       fill="none"
       id="Clause-backto-Rule"
       style="stroke:#A80036;stroke-width:1.0;" />
    <polygon
       fill="none"
       points="985.499,290.049,976.217,271,995.352,280.103,985.499,290.049"
       style="stroke:#A80036;stroke-width:1.0;"
       id="polygon354" />
    <!--MD5=[528afe65e613338255b9ddfd2453915a]
reverse link Clause to Directive-->
    <path
       codeLine="56"
       d="M953,291.024 C953,304.579 953,319.038 953,330.678 "
       fill="none"
       id="Clause-backto-Directive"
       style="stroke:#A80036;stroke-width:1.0;" />
    <polygon
       fill="none"
       points="946,291,953,271,960,291,946,291"
       style="stroke:#A80036;stroke-width:1.0;"
       id="polygon357" />
    <!--MD5=[20e1b802e026257bc052a955cce88ea7]
reverse link Rule to Fact-->
    <path
       codeLine="57"
       d="M1060,399.024 C1060,412.579 1060,427.038 1060,438.678 "
       fill="none"
       id="Rule-backto-Fact"
       style="stroke:#A80036;stroke-width:1.0;" />
    <polygon
       fill="none"
       points="1053,399,1060,379,1067,399,1053,399"
       style="stroke:#A80036;stroke-width:1.0;"
       id="polygon360" />
    <!--MD5=[df97ebce1198737b24e943c468dd61a5]
reverse link Constant to Ref-->
    <path
       codeLine="64"
       d="M326.739,170.063 C283.989,191.043 229.132,217.963 197.535,233.469 "
       fill="none"
       id="Constant-backto-Ref"
       style="stroke:#A80036;stroke-width:1.0;" />
    <polygon
       fill="none"
       points="323.77,163.723,344.808,161.196,329.938,176.291,323.77,163.723"
       style="stroke:#A80036;stroke-width:1.0;"
       id="polygon363" />
    <!--MD5=[d6b1f1a5a77c324e39080ec4756d6859]
reverse link Ref to TypeRef-->
    <path
       codeLine="65"
       d="M172,291.024 C172,304.579 172,319.038 172,330.678 "
       fill="none"
       id="Ref-backto-TypeRef"
       style="stroke:#A80036;stroke-width:1.0;" />
    <polygon
       fill="none"
       points="165,291,172,271,179,291,165,291"
       style="stroke:#A80036;stroke-width:1.0;"
       id="polygon366" />
    <!--MD5=[1aaf9f634ddbf1899d62ba275e398f36]
reverse link Ref to ObjectRef-->
    <path
       codeLine="66"
       d="M131.043,284.179 C113.521,299.656 93.5828,317.269 78.1145,330.932 "
       fill="none"
       id="Ref-backto-ObjectRef"
       style="stroke:#A80036;stroke-width:1.0;" />
    <polygon
       fill="none"
       points="126.633,278.734,146.257,270.74,135.902,289.227,126.633,278.734"
       style="stroke:#A80036;stroke-width:1.0;"
       id="polygon369" />
    <!--MD5=[c3e0bedeb9e4d71141d63771f7eb0aa2]
reverse link ObjectRef to NullRef-->
    <path
       codeLine="67"
       d="M52,399.024 C52,412.579 52,427.038 52,438.678 "
       fill="none"
       id="ObjectRef-backto-NullRef"
       style="stroke:#A80036;stroke-width:1.0;" />
    <polygon
       fill="none"
       points="45.0001,399,52,379,59.0001,399,45.0001,399"
       style="stroke:#A80036;stroke-width:1.0;"
       id="polygon372" />
    <!--MD5=[bf963ea15e3d2708f54cb609a89175e2]
@startuml
skinparam shadowing false

interface Term
interface Constant
interface Var
interface Struct
interface Numeric
interface Integer
interface Real
interface Atom
interface Truth
interface Indicator
interface Empty
interface EmptyBlock
interface EmptyList
interface Recursive
interface List
interface Cons
interface Block
interface Tuple

Term <|-down- Struct
Term <|-down- Constant
Term <|-down- Var

Constant <|-down- Numeric
Constant <|-down- Atom

Numeric <|-down- Real
Numeric <|-down- Integer

Struct <|-down- Atom
Struct <|-down- Recursive
Struct <|-down- Indicator

Recursive <|-down- List
Recursive <|-down- Tuple
Recursive <|-down- Block

Atom <|-down- Truth
Atom <|-down- Empty

Empty <|-up- EmptyList
Empty <|-up- EmptyBlock

List <|-down- EmptyList
List <|-down- Cons
Block <|-down- EmptyBlock

interface Clause
interface Rule
interface Directive
interface Fact
Struct <|-down- Clause
Clause <|-down- Rule
Clause <|-down- Directive
Rule <|-down- Fact


interface Ref
interface TypeRef
interface ObjectRef
interface NullRef
Constant <|-down- Ref
Ref <|-down- TypeRef
Ref <|-down- ObjectRef
ObjectRef <|-down- NullRef
@enduml

PlantUML version 1.2021.17beta9(Unknown compile time)
(GPL source distribution)
Java Runtime: Java(TM) SE Runtime Environment
JVM: Java HotSpot(TM) 64-Bit Server VM
Default Encoding: UTF-8
Language: en
Country: US
-->
  </g>
  <path
     style="fill:#ffffff;stroke:none;stroke-width:1px;stroke-linecap:butt;stroke-linejoin:miter;stroke-opacity:1;fill-opacity:0.59507465"
     d="M 0,0 V 188.22502 L 323.77,163.723 344.808,161.196 329.938,176.291 232.65175,306.8131 208.07163,602 H 1096 V 0 Z"
     id="path1267" />
</svg>
